solid pin
   facet normal -9.961947e-01 8.715553e-02 0.000000e+00
      outer loop
         vertex 2.222500e+00 5.080000e+00 2.540000e+00
         vertex 2.265912e+00 5.576200e+00 1.358900e+02
         vertex 2.265912e+00 5.576200e+00 2.540000e+00
      endloop
   endfacet
   facet normal -9.659257e-01 2.588194e-01 0.000000e+00
      outer loop
         vertex 2.265912e+00 5.576200e+00 2.540000e+00
         vertex 2.265912e+00 5.576200e+00 1.358900e+02
         vertex 2.394828e+00 6.057323e+00 1.358900e+02
      endloop
   endfacet
   facet normal -9.659257e-01 2.588194e-01 0.000000e+00
      outer loop
         vertex 2.265912e+00 5.576200e+00 2.540000e+00
         vertex 2.394828e+00 6.057323e+00 1.358900e+02
         vertex 2.394828e+00 6.057323e+00 2.540000e+00
      endloop
   endfacet
   facet normal -9.063078e-01 4.226182e-01 0.000000e+00
      outer loop
         vertex 2.394828e+00 6.057323e+00 2.540000e+00
         vertex 2.394828e+00 6.057323e+00 1.358900e+02
         vertex 2.605333e+00 6.508750e+00 1.358900e+02
      endloop
   endfacet
   facet normal -9.063078e-01 4.226182e-01 0.000000e+00
      outer loop
         vertex 2.394828e+00 6.057323e+00 2.540000e+00
         vertex 2.605333e+00 6.508750e+00 1.358900e+02
         vertex 2.605333e+00 6.508750e+00 2.540000e+00
      endloop
   endfacet
   facet normal -8.191521e-01 5.735764e-01 0.000000e+00
      outer loop
         vertex 2.605333e+00 6.508750e+00 2.540000e+00
         vertex 2.605333e+00 6.508750e+00 1.358900e+02
         vertex 2.891028e+00 6.916766e+00 1.358900e+02
      endloop
   endfacet
   facet normal -8.191521e-01 5.735764e-01 0.000000e+00
      outer loop
         vertex 2.605333e+00 6.508750e+00 2.540000e+00
         vertex 2.891028e+00 6.916766e+00 1.358900e+02
         vertex 2.891028e+00 6.916766e+00 2.540000e+00
      endloop
   endfacet
   facet normal -7.071068e-01 7.071068e-01 0.000000e+00
      outer loop
         vertex 2.891028e+00 6.916766e+00 2.540000e+00
         vertex 2.891028e+00 6.916766e+00 1.358900e+02
         vertex 3.243234e+00 7.268972e+00 1.358900e+02
      endloop
   endfacet
   facet normal -7.071068e-01 7.071068e-01 0.000000e+00
      outer loop
         vertex 2.891028e+00 6.916766e+00 2.540000e+00
         vertex 3.243234e+00 7.268972e+00 1.358900e+02
         vertex 3.243234e+00 7.268972e+00 2.540000e+00
      endloop
   endfacet
   facet normal -5.735764e-01 8.191521e-01 0.000000e+00
      outer loop
         vertex 3.243234e+00 7.268972e+00 2.540000e+00
         vertex 3.243234e+00 7.268972e+00 1.358900e+02
         vertex 3.651250e+00 7.554668e+00 1.358900e+02
      endloop
   endfacet
   facet normal -5.735764e-01 8.191521e-01 0.000000e+00
      outer loop
         vertex 3.243234e+00 7.268972e+00 2.540000e+00
         vertex 3.651250e+00 7.554668e+00 1.358900e+02
         vertex 3.651250e+00 7.554668e+00 2.540000e+00
      endloop
   endfacet
   facet normal -4.226182e-01 9.063078e-01 0.000000e+00
      outer loop
         vertex 3.651250e+00 7.554668e+00 2.540000e+00
         vertex 3.651250e+00 7.554668e+00 1.358900e+02
         vertex 4.102677e+00 7.765172e+00 1.358900e+02
      endloop
   endfacet
   facet normal -4.226182e-01 9.063078e-01 0.000000e+00
      outer loop
         vertex 3.651250e+00 7.554668e+00 2.540000e+00
         vertex 4.102677e+00 7.765172e+00 1.358900e+02
         vertex 4.102677e+00 7.765172e+00 2.540000e+00
      endloop
   endfacet
   facet normal -2.588194e-01 9.659257e-01 0.000000e+00
      outer loop
         vertex 4.102677e+00 7.765172e+00 2.540000e+00
         vertex 4.102677e+00 7.765172e+00 1.358900e+02
         vertex 4.583800e+00 7.894088e+00 1.358900e+02
      endloop
   endfacet
   facet normal -2.588194e-01 9.659257e-01 0.000000e+00
      outer loop
         vertex 4.102677e+00 7.765172e+00 2.540000e+00
         vertex 4.583800e+00 7.894088e+00 1.358900e+02
         vertex 4.583800e+00 7.894088e+00 2.540000e+00
      endloop
   endfacet
   facet normal -8.715553e-02 9.961947e-01 0.000000e+00
      outer loop
         vertex 4.583800e+00 7.894088e+00 2.540000e+00
         vertex 4.583800e+00 7.894088e+00 1.358900e+02
         vertex 5.080000e+00 7.937500e+00 1.358900e+02
      endloop
   endfacet
   facet normal -8.715553e-02 9.961947e-01 0.000000e+00
      outer loop
         vertex 4.583800e+00 7.894088e+00 2.540000e+00
         vertex 5.080000e+00 7.937500e+00 1.358900e+02
         vertex 5.080000e+00 7.937500e+00 2.540000e+00
      endloop
   endfacet
   facet normal 8.715553e-02 9.961947e-01 -0.000000e+00
      outer loop
         vertex 5.080000e+00 7.937500e+00 2.540000e+00
         vertex 5.080000e+00 7.937500e+00 1.358900e+02
         vertex 5.576200e+00 7.894088e+00 1.358900e+02
      endloop
   endfacet
   facet normal 8.715553e-02 9.961947e-01 0.000000e+00
      outer loop
         vertex 5.080000e+00 7.937500e+00 2.540000e+00
         vertex 5.576200e+00 7.894088e+00 1.358900e+02
         vertex 5.576200e+00 7.894088e+00 2.540000e+00
      endloop
   endfacet
   facet normal 2.588194e-01 9.659257e-01 -0.000000e+00
      outer loop
         vertex 5.576200e+00 7.894088e+00 2.540000e+00
         vertex 5.576200e+00 7.894088e+00 1.358900e+02
         vertex 6.057323e+00 7.765172e+00 1.358900e+02
      endloop
   endfacet
   facet normal 2.588194e-01 9.659257e-01 0.000000e+00
      outer loop
         vertex 5.576200e+00 7.894088e+00 2.540000e+00
         vertex 6.057323e+00 7.765172e+00 1.358900e+02
         vertex 6.057323e+00 7.765172e+00 2.540000e+00
      endloop
   endfacet
   facet normal 4.226182e-01 9.063078e-01 -0.000000e+00
      outer loop
         vertex 6.057323e+00 7.765172e+00 2.540000e+00
         vertex 6.057323e+00 7.765172e+00 1.358900e+02
         vertex 6.508750e+00 7.554668e+00 1.358900e+02
      endloop
   endfacet
   facet normal 4.226182e-01 9.063078e-01 0.000000e+00
      outer loop
         vertex 6.057323e+00 7.765172e+00 2.540000e+00
         vertex 6.508750e+00 7.554668e+00 1.358900e+02
         vertex 6.508750e+00 7.554668e+00 2.540000e+00
      endloop
   endfacet
   facet normal 5.735764e-01 8.191521e-01 -0.000000e+00
      outer loop
         vertex 6.508750e+00 7.554668e+00 2.540000e+00
         vertex 6.508750e+00 7.554668e+00 1.358900e+02
         vertex 6.916766e+00 7.268972e+00 1.358900e+02
      endloop
   endfacet
   facet normal 5.735764e-01 8.191521e-01 0.000000e+00
      outer loop
         vertex 6.508750e+00 7.554668e+00 2.540000e+00
         vertex 6.916766e+00 7.268972e+00 1.358900e+02
         vertex 6.916766e+00 7.268972e+00 2.540000e+00
      endloop
   endfacet
   facet normal 7.071068e-01 7.071068e-01 -0.000000e+00
      outer loop
         vertex 6.916766e+00 7.268972e+00 2.540000e+00
         vertex 6.916766e+00 7.268972e+00 1.358900e+02
         vertex 7.268972e+00 6.916766e+00 1.358900e+02
      endloop
   endfacet
   facet normal 7.071068e-01 7.071068e-01 0.000000e+00
      outer loop
         vertex 6.916766e+00 7.268972e+00 2.540000e+00
         vertex 7.268972e+00 6.916766e+00 1.358900e+02
         vertex 7.268972e+00 6.916766e+00 2.540000e+00
      endloop
   endfacet
   facet normal 8.191521e-01 5.735764e-01 -0.000000e+00
      outer loop
         vertex 7.268972e+00 6.916766e+00 2.540000e+00
         vertex 7.268972e+00 6.916766e+00 1.358900e+02
         vertex 7.554668e+00 6.508750e+00 1.358900e+02
      endloop
   endfacet
   facet normal 8.191521e-01 5.735764e-01 0.000000e+00
      outer loop
         vertex 7.268972e+00 6.916766e+00 2.540000e+00
         vertex 7.554668e+00 6.508750e+00 1.358900e+02
         vertex 7.554668e+00 6.508750e+00 2.540000e+00
      endloop
   endfacet
   facet normal 9.063078e-01 4.226182e-01 -0.000000e+00
      outer loop
         vertex 7.554668e+00 6.508750e+00 2.540000e+00
         vertex 7.554668e+00 6.508750e+00 1.358900e+02
         vertex 7.765172e+00 6.057323e+00 1.358900e+02
      endloop
   endfacet
   facet normal 9.063078e-01 4.226182e-01 0.000000e+00
      outer loop
         vertex 7.554668e+00 6.508750e+00 2.540000e+00
         vertex 7.765172e+00 6.057323e+00 1.358900e+02
         vertex 7.765172e+00 6.057323e+00 2.540000e+00
      endloop
   endfacet
   facet normal 9.659257e-01 2.588194e-01 -0.000000e+00
      outer loop
         vertex 7.765172e+00 6.057323e+00 2.540000e+00
         vertex 7.765172e+00 6.057323e+00 1.358900e+02
         vertex 7.894088e+00 5.576200e+00 1.358900e+02
      endloop
   endfacet
   facet normal 9.659257e-01 2.588194e-01 0.000000e+00
      outer loop
         vertex 7.765172e+00 6.057323e+00 2.540000e+00
         vertex 7.894088e+00 5.576200e+00 1.358900e+02
         vertex 7.894088e+00 5.576200e+00 2.540000e+00
      endloop
   endfacet
   facet normal 9.961947e-01 8.715553e-02 -0.000000e+00
      outer loop
         vertex 7.894088e+00 5.576200e+00 2.540000e+00
         vertex 7.894088e+00 5.576200e+00 1.358900e+02
         vertex 7.937500e+00 5.080000e+00 1.358900e+02
      endloop
   endfacet
   facet normal 9.961947e-01 8.715553e-02 0.000000e+00
      outer loop
         vertex 7.894088e+00 5.576200e+00 2.540000e+00
         vertex 7.937500e+00 5.080000e+00 1.358900e+02
         vertex 7.937500e+00 5.080000e+00 2.540000e+00
      endloop
   endfacet
   facet normal 9.961947e-01 -8.715553e-02 0.000000e+00
      outer loop
         vertex 7.937500e+00 5.080000e+00 2.540000e+00
         vertex 7.937500e+00 5.080000e+00 1.358900e+02
         vertex 7.894088e+00 4.583800e+00 1.358900e+02
      endloop
   endfacet
   facet normal 9.961947e-01 -8.715553e-02 0.000000e+00
      outer loop
         vertex 7.937500e+00 5.080000e+00 2.540000e+00
         vertex 7.894088e+00 4.583800e+00 1.358900e+02
         vertex 7.894088e+00 4.583800e+00 2.540000e+00
      endloop
   endfacet
   facet normal 9.659257e-01 -2.588194e-01 0.000000e+00
      outer loop
         vertex 7.894088e+00 4.583800e+00 2.540000e+00
         vertex 7.894088e+00 4.583800e+00 1.358900e+02
         vertex 7.765172e+00 4.102677e+00 1.358900e+02
      endloop
   endfacet
   facet normal 9.659257e-01 -2.588194e-01 0.000000e+00
      outer loop
         vertex 7.894088e+00 4.583800e+00 2.540000e+00
         vertex 7.765172e+00 4.102677e+00 1.358900e+02
         vertex 7.765172e+00 4.102677e+00 2.540000e+00
      endloop
   endfacet
   facet normal 9.063078e-01 -4.226182e-01 0.000000e+00
      outer loop
         vertex 7.765172e+00 4.102677e+00 2.540000e+00
         vertex 7.765172e+00 4.102677e+00 1.358900e+02
         vertex 7.554668e+00 3.651250e+00 1.358900e+02
      endloop
   endfacet
   facet normal 9.063078e-01 -4.226182e-01 0.000000e+00
      outer loop
         vertex 7.765172e+00 4.102677e+00 2.540000e+00
         vertex 7.554668e+00 3.651250e+00 1.358900e+02
         vertex 7.554668e+00 3.651250e+00 2.540000e+00
      endloop
   endfacet
   facet normal 8.191521e-01 -5.735764e-01 0.000000e+00
      outer loop
         vertex 7.554668e+00 3.651250e+00 2.540000e+00
         vertex 7.554668e+00 3.651250e+00 1.358900e+02
         vertex 7.268972e+00 3.243234e+00 1.358900e+02
      endloop
   endfacet
   facet normal 8.191521e-01 -5.735764e-01 0.000000e+00
      outer loop
         vertex 7.554668e+00 3.651250e+00 2.540000e+00
         vertex 7.268972e+00 3.243234e+00 1.358900e+02
         vertex 7.268972e+00 3.243234e+00 2.540000e+00
      endloop
   endfacet
   facet normal 7.071068e-01 -7.071068e-01 0.000000e+00
      outer loop
         vertex 7.268972e+00 3.243234e+00 2.540000e+00
         vertex 7.268972e+00 3.243234e+00 1.358900e+02
         vertex 6.916766e+00 2.891028e+00 1.358900e+02
      endloop
   endfacet
   facet normal 7.071068e-01 -7.071068e-01 0.000000e+00
      outer loop
         vertex 7.268972e+00 3.243234e+00 2.540000e+00
         vertex 6.916766e+00 2.891028e+00 1.358900e+02
         vertex 6.916766e+00 2.891028e+00 2.540000e+00
      endloop
   endfacet
   facet normal 5.735764e-01 -8.191521e-01 0.000000e+00
      outer loop
         vertex 6.916766e+00 2.891028e+00 2.540000e+00
         vertex 6.916766e+00 2.891028e+00 1.358900e+02
         vertex 6.508750e+00 2.605333e+00 1.358900e+02
      endloop
   endfacet
   facet normal 5.735764e-01 -8.191521e-01 0.000000e+00
      outer loop
         vertex 6.916766e+00 2.891028e+00 2.540000e+00
         vertex 6.508750e+00 2.605333e+00 1.358900e+02
         vertex 6.508750e+00 2.605333e+00 2.540000e+00
      endloop
   endfacet
   facet normal 4.226182e-01 -9.063078e-01 0.000000e+00
      outer loop
         vertex 6.508750e+00 2.605333e+00 2.540000e+00
         vertex 6.508750e+00 2.605333e+00 1.358900e+02
         vertex 6.057323e+00 2.394828e+00 1.358900e+02
      endloop
   endfacet
   facet normal 4.226182e-01 -9.063078e-01 0.000000e+00
      outer loop
         vertex 6.508750e+00 2.605333e+00 2.540000e+00
         vertex 6.057323e+00 2.394828e+00 1.358900e+02
         vertex 6.057323e+00 2.394828e+00 2.540000e+00
      endloop
   endfacet
   facet normal 2.588194e-01 -9.659257e-01 0.000000e+00
      outer loop
         vertex 6.057323e+00 2.394828e+00 2.540000e+00
         vertex 6.057323e+00 2.394828e+00 1.358900e+02
         vertex 5.576200e+00 2.265912e+00 1.358900e+02
      endloop
   endfacet
   facet normal 2.588194e-01 -9.659257e-01 0.000000e+00
      outer loop
         vertex 6.057323e+00 2.394828e+00 2.540000e+00
         vertex 5.576200e+00 2.265912e+00 1.358900e+02
         vertex 5.576200e+00 2.265912e+00 2.540000e+00
      endloop
   endfacet
   facet normal 8.715553e-02 -9.961947e-01 0.000000e+00
      outer loop
         vertex 5.576200e+00 2.265912e+00 2.540000e+00
         vertex 5.576200e+00 2.265912e+00 1.358900e+02
         vertex 5.080000e+00 2.222500e+00 1.358900e+02
      endloop
   endfacet
   facet normal 8.715553e-02 -9.961947e-01 0.000000e+00
      outer loop
         vertex 5.576200e+00 2.265912e+00 2.540000e+00
         vertex 5.080000e+00 2.222500e+00 1.358900e+02
         vertex 5.080000e+00 2.222500e+00 2.540000e+00
      endloop
   endfacet
   facet normal -8.715553e-02 -9.961947e-01 0.000000e+00
      outer loop
         vertex 5.080000e+00 2.222500e+00 2.540000e+00
         vertex 5.080000e+00 2.222500e+00 1.358900e+02
         vertex 4.583800e+00 2.265912e+00 1.358900e+02
      endloop
   endfacet
   facet normal -8.715553e-02 -9.961947e-01 0.000000e+00
      outer loop
         vertex 5.080000e+00 2.222500e+00 2.540000e+00
         vertex 4.583800e+00 2.265912e+00 1.358900e+02
         vertex 4.583800e+00 2.265912e+00 2.540000e+00
      endloop
   endfacet
   facet normal -2.588194e-01 -9.659257e-01 0.000000e+00
      outer loop
         vertex 4.583800e+00 2.265912e+00 2.540000e+00
         vertex 4.583800e+00 2.265912e+00 1.358900e+02
         vertex 4.102677e+00 2.394828e+00 1.358900e+02
      endloop
   endfacet
   facet normal -2.588194e-01 -9.659257e-01 0.000000e+00
      outer loop
         vertex 4.583800e+00 2.265912e+00 2.540000e+00
         vertex 4.102677e+00 2.394828e+00 1.358900e+02
         vertex 4.102677e+00 2.394828e+00 2.540000e+00
      endloop
   endfacet
   facet normal -4.226182e-01 -9.063078e-01 0.000000e+00
      outer loop
         vertex 4.102677e+00 2.394828e+00 2.540000e+00
         vertex 4.102677e+00 2.394828e+00 1.358900e+02
         vertex 3.651250e+00 2.605333e+00 1.358900e+02
      endloop
   endfacet
   facet normal -4.226182e-01 -9.063078e-01 0.000000e+00
      outer loop
         vertex 4.102677e+00 2.394828e+00 2.540000e+00
         vertex 3.651250e+00 2.605333e+00 1.358900e+02
         vertex 3.651250e+00 2.605333e+00 2.540000e+00
      endloop
   endfacet
   facet normal -5.735764e-01 -8.191521e-01 0.000000e+00
      outer loop
         vertex 3.651250e+00 2.605333e+00 2.540000e+00
         vertex 3.651250e+00 2.605333e+00 1.358900e+02
         vertex 3.243234e+00 2.891028e+00 1.358900e+02
      endloop
   endfacet
   facet normal -5.735764e-01 -8.191521e-01 0.000000e+00
      outer loop
         vertex 3.651250e+00 2.605333e+00 2.540000e+00
         vertex 3.243234e+00 2.891028e+00 1.358900e+02
         vertex 3.243234e+00 2.891028e+00 2.540000e+00
      endloop
   endfacet
   facet normal -7.071068e-01 -7.071068e-01 0.000000e+00
      outer loop
         vertex 3.243234e+00 2.891028e+00 2.540000e+00
         vertex 3.243234e+00 2.891028e+00 1.358900e+02
         vertex 2.891028e+00 3.243234e+00 1.358900e+02
      endloop
   endfacet
   facet normal -7.071068e-01 -7.071068e-01 0.000000e+00
      outer loop
         vertex 3.243234e+00 2.891028e+00 2.540000e+00
         vertex 2.891028e+00 3.243234e+00 1.358900e+02
         vertex 2.891028e+00 3.243234e+00 2.540000e+00
      endloop
   endfacet
   facet normal -8.191521e-01 -5.735764e-01 0.000000e+00
      outer loop
         vertex 2.891028e+00 3.243234e+00 2.540000e+00
         vertex 2.891028e+00 3.243234e+00 1.358900e+02
         vertex 2.605333e+00 3.651250e+00 1.358900e+02
      endloop
   endfacet
   facet normal -8.191521e-01 -5.735764e-01 0.000000e+00
      outer loop
         vertex 2.891028e+00 3.243234e+00 2.540000e+00
         vertex 2.605333e+00 3.651250e+00 1.358900e+02
         vertex 2.605333e+00 3.651250e+00 2.540000e+00
      endloop
   endfacet
   facet normal -9.063078e-01 -4.226182e-01 0.000000e+00
      outer loop
         vertex 2.605333e+00 3.651250e+00 2.540000e+00
         vertex 2.605333e+00 3.651250e+00 1.358900e+02
         vertex 2.394828e+00 4.102677e+00 1.358900e+02
      endloop
   endfacet
   facet normal -9.063078e-01 -4.226182e-01 0.000000e+00
      outer loop
         vertex 2.605333e+00 3.651250e+00 2.540000e+00
         vertex 2.394828e+00 4.102677e+00 1.358900e+02
         vertex 2.394828e+00 4.102677e+00 2.540000e+00
      endloop
   endfacet
   facet normal -9.659257e-01 -2.588194e-01 0.000000e+00
      outer loop
         vertex 2.394828e+00 4.102677e+00 2.540000e+00
         vertex 2.394828e+00 4.102677e+00 1.358900e+02
         vertex 2.265912e+00 4.583800e+00 1.358900e+02
      endloop
   endfacet
   facet normal -9.659257e-01 -2.588194e-01 0.000000e+00
      outer loop
         vertex 2.394828e+00 4.102677e+00 2.540000e+00
         vertex 2.265912e+00 4.583800e+00 1.358900e+02
         vertex 2.265912e+00 4.583800e+00 2.540000e+00
      endloop
   endfacet
   facet normal -9.961947e-01 -8.715553e-02 0.000000e+00
      outer loop
         vertex 2.265912e+00 4.583800e+00 2.540000e+00
         vertex 2.265912e+00 4.583800e+00 1.358900e+02
         vertex 2.222500e+00 5.080000e+00 1.358900e+02
      endloop
   endfacet
   facet normal -9.961947e-01 -8.715553e-02 0.000000e+00
      outer loop
         vertex 2.265912e+00 4.583800e+00 2.540000e+00
         vertex 2.222500e+00 5.080000e+00 1.358900e+02
         vertex 2.222500e+00 5.080000e+00 2.540000e+00
      endloop
   endfacet
   facet normal -9.961947e-01 8.715553e-02 0.000000e+00
      outer loop
         vertex 2.222500e+00 5.080000e+00 2.540000e+00
         vertex 2.222500e+00 5.080000e+00 1.358900e+02
         vertex 2.265912e+00 5.576200e+00 1.358900e+02
      endloop
   endfacet
   facet normal 0.000000e+00 -0.000000e+00 1.000000e+00
      outer loop
         vertex 7.765172e+00 4.102677e+00 1.358900e+02
         vertex 7.894088e+00 4.583800e+00 1.358900e+02
         vertex 5.080000e+00 5.080000e+00 1.358900e+02
      endloop
   endfacet
   facet normal -0.000000e+00 0.000000e+00 1.000000e+00
      outer loop
         vertex 5.080000e+00 5.080000e+00 1.358900e+02
         vertex 7.894088e+00 4.583800e+00 1.358900e+02
         vertex 7.937500e+00 5.080000e+00 1.358900e+02
      endloop
   endfacet
   facet normal 0.000000e+00 0.000000e+00 1.000000e+00
      outer loop
         vertex 5.080000e+00 5.080000e+00 1.358900e+02
         vertex 7.937500e+00 5.080000e+00 1.358900e+02
         vertex 7.894088e+00 5.576200e+00 1.358900e+02
      endloop
   endfacet
   facet normal 0.000000e+00 -0.000000e+00 1.000000e+00
      outer loop
         vertex 6.916766e+00 2.891028e+00 1.358900e+02
         vertex 7.268972e+00 3.243234e+00 1.358900e+02
         vertex 5.080000e+00 5.080000e+00 1.358900e+02
      endloop
   endfacet
   facet normal 0.000000e+00 0.000000e+00 1.000000e+00
      outer loop
         vertex 5.080000e+00 5.080000e+00 1.358900e+02
         vertex 7.268972e+00 3.243234e+00 1.358900e+02
         vertex 7.554668e+00 3.651250e+00 1.358900e+02
      endloop
   endfacet
   facet normal 0.000000e+00 0.000000e+00 1.000000e+00
      outer loop
         vertex 5.080000e+00 5.080000e+00 1.358900e+02
         vertex 7.554668e+00 3.651250e+00 1.358900e+02
         vertex 7.765172e+00 4.102677e+00 1.358900e+02
      endloop
   endfacet
   facet normal 0.000000e+00 -0.000000e+00 1.000000e+00
      outer loop
         vertex 5.576200e+00 2.265912e+00 1.358900e+02
         vertex 6.057323e+00 2.394828e+00 1.358900e+02
         vertex 5.080000e+00 5.080000e+00 1.358900e+02
      endloop
   endfacet
   facet normal 0.000000e+00 0.000000e+00 1.000000e+00
      outer loop
         vertex 5.080000e+00 5.080000e+00 1.358900e+02
         vertex 6.057323e+00 2.394828e+00 1.358900e+02
         vertex 6.508750e+00 2.605333e+00 1.358900e+02
      endloop
   endfacet
   facet normal 0.000000e+00 0.000000e+00 1.000000e+00
      outer loop
         vertex 5.080000e+00 5.080000e+00 1.358900e+02
         vertex 6.508750e+00 2.605333e+00 1.358900e+02
         vertex 6.916766e+00 2.891028e+00 1.358900e+02
      endloop
   endfacet
   facet normal -0.000000e+00 0.000000e+00 1.000000e+00
      outer loop
         vertex 4.102677e+00 2.394828e+00 1.358900e+02
         vertex 4.583800e+00 2.265912e+00 1.358900e+02
         vertex 5.080000e+00 5.080000e+00 1.358900e+02
      endloop
   endfacet
   facet normal 0.000000e+00 0.000000e+00 1.000000e+00
      outer loop
         vertex 5.080000e+00 5.080000e+00 1.358900e+02
         vertex 4.583800e+00 2.265912e+00 1.358900e+02
         vertex 5.080000e+00 2.222500e+00 1.358900e+02
      endloop
   endfacet
   facet normal 0.000000e+00 0.000000e+00 1.000000e+00
      outer loop
         vertex 5.080000e+00 5.080000e+00 1.358900e+02
         vertex 5.080000e+00 2.222500e+00 1.358900e+02
         vertex 5.576200e+00 2.265912e+00 1.358900e+02
      endloop
   endfacet
   facet normal -0.000000e+00 0.000000e+00 1.000000e+00
      outer loop
         vertex 2.891028e+00 3.243234e+00 1.358900e+02
         vertex 3.243234e+00 2.891028e+00 1.358900e+02
         vertex 5.080000e+00 5.080000e+00 1.358900e+02
      endloop
   endfacet
   facet normal 0.000000e+00 0.000000e+00 1.000000e+00
      outer loop
         vertex 5.080000e+00 5.080000e+00 1.358900e+02
         vertex 3.243234e+00 2.891028e+00 1.358900e+02
         vertex 3.651250e+00 2.605333e+00 1.358900e+02
      endloop
   endfacet
   facet normal 0.000000e+00 0.000000e+00 1.000000e+00
      outer loop
         vertex 5.080000e+00 5.080000e+00 1.358900e+02
         vertex 3.651250e+00 2.605333e+00 1.358900e+02
         vertex 4.102677e+00 2.394828e+00 1.358900e+02
      endloop
   endfacet
   facet normal -0.000000e+00 0.000000e+00 1.000000e+00
      outer loop
         vertex 2.265912e+00 4.583800e+00 1.358900e+02
         vertex 2.394828e+00 4.102677e+00 1.358900e+02
         vertex 5.080000e+00 5.080000e+00 1.358900e+02
      endloop
   endfacet
   facet normal 0.000000e+00 0.000000e+00 1.000000e+00
      outer loop
         vertex 5.080000e+00 5.080000e+00 1.358900e+02
         vertex 2.394828e+00 4.102677e+00 1.358900e+02
         vertex 2.605333e+00 3.651250e+00 1.358900e+02
      endloop
   endfacet
   facet normal 0.000000e+00 0.000000e+00 1.000000e+00
      outer loop
         vertex 5.080000e+00 5.080000e+00 1.358900e+02
         vertex 2.605333e+00 3.651250e+00 1.358900e+02
         vertex 2.891028e+00 3.243234e+00 1.358900e+02
      endloop
   endfacet
   facet normal 0.000000e+00 0.000000e+00 1.000000e+00
      outer loop
         vertex 2.394828e+00 6.057323e+00 1.358900e+02
         vertex 2.265912e+00 5.576200e+00 1.358900e+02
         vertex 5.080000e+00 5.080000e+00 1.358900e+02
      endloop
   endfacet
   facet normal 0.000000e+00 0.000000e+00 1.000000e+00
      outer loop
         vertex 5.080000e+00 5.080000e+00 1.358900e+02
         vertex 2.265912e+00 5.576200e+00 1.358900e+02
         vertex 2.222500e+00 5.080000e+00 1.358900e+02
      endloop
   endfacet
   facet normal 0.000000e+00 0.000000e+00 1.000000e+00
      outer loop
         vertex 5.080000e+00 5.080000e+00 1.358900e+02
         vertex 2.222500e+00 5.080000e+00 1.358900e+02
         vertex 2.265912e+00 4.583800e+00 1.358900e+02
      endloop
   endfacet
   facet normal 0.000000e+00 0.000000e+00 1.000000e+00
      outer loop
         vertex 3.243234e+00 7.268972e+00 1.358900e+02
         vertex 2.891028e+00 6.916766e+00 1.358900e+02
         vertex 5.080000e+00 5.080000e+00 1.358900e+02
      endloop
   endfacet
   facet normal 0.000000e+00 0.000000e+00 1.000000e+00
      outer loop
         vertex 5.080000e+00 5.080000e+00 1.358900e+02
         vertex 2.891028e+00 6.916766e+00 1.358900e+02
         vertex 2.605333e+00 6.508750e+00 1.358900e+02
      endloop
   endfacet
   facet normal 0.000000e+00 0.000000e+00 1.000000e+00
      outer loop
         vertex 5.080000e+00 5.080000e+00 1.358900e+02
         vertex 2.605333e+00 6.508750e+00 1.358900e+02
         vertex 2.394828e+00 6.057323e+00 1.358900e+02
      endloop
   endfacet
   facet normal 0.000000e+00 0.000000e+00 1.000000e+00
      outer loop
         vertex 4.583800e+00 7.894088e+00 1.358900e+02
         vertex 4.102677e+00 7.765172e+00 1.358900e+02
         vertex 5.080000e+00 5.080000e+00 1.358900e+02
      endloop
   endfacet
   facet normal 0.000000e+00 0.000000e+00 1.000000e+00
      outer loop
         vertex 5.080000e+00 5.080000e+00 1.358900e+02
         vertex 4.102677e+00 7.765172e+00 1.358900e+02
         vertex 3.651250e+00 7.554668e+00 1.358900e+02
      endloop
   endfacet
   facet normal 0.000000e+00 0.000000e+00 1.000000e+00
      outer loop
         vertex 5.080000e+00 5.080000e+00 1.358900e+02
         vertex 3.651250e+00 7.554668e+00 1.358900e+02
         vertex 3.243234e+00 7.268972e+00 1.358900e+02
      endloop
   endfacet
   facet normal 0.000000e+00 0.000000e+00 1.000000e+00
      outer loop
         vertex 6.057323e+00 7.765172e+00 1.358900e+02
         vertex 5.576200e+00 7.894088e+00 1.358900e+02
         vertex 5.080000e+00 5.080000e+00 1.358900e+02
      endloop
   endfacet
   facet normal 0.000000e+00 -0.000000e+00 1.000000e+00
      outer loop
         vertex 5.080000e+00 5.080000e+00 1.358900e+02
         vertex 5.576200e+00 7.894088e+00 1.358900e+02
         vertex 5.080000e+00 7.937500e+00 1.358900e+02
      endloop
   endfacet
   facet normal 0.000000e+00 0.000000e+00 1.000000e+00
      outer loop
         vertex 5.080000e+00 5.080000e+00 1.358900e+02
         vertex 5.080000e+00 7.937500e+00 1.358900e+02
         vertex 4.583800e+00 7.894088e+00 1.358900e+02
      endloop
   endfacet
   facet normal 0.000000e+00 0.000000e+00 1.000000e+00
      outer loop
         vertex 7.268972e+00 6.916766e+00 1.358900e+02
         vertex 6.916766e+00 7.268972e+00 1.358900e+02
         vertex 5.080000e+00 5.080000e+00 1.358900e+02
      endloop
   endfacet
   facet normal 0.000000e+00 0.000000e+00 1.000000e+00
      outer loop
         vertex 5.080000e+00 5.080000e+00 1.358900e+02
         vertex 6.916766e+00 7.268972e+00 1.358900e+02
         vertex 6.508750e+00 7.554668e+00 1.358900e+02
      endloop
   endfacet
   facet normal 0.000000e+00 0.000000e+00 1.000000e+00
      outer loop
         vertex 5.080000e+00 5.080000e+00 1.358900e+02
         vertex 6.508750e+00 7.554668e+00 1.358900e+02
         vertex 6.057323e+00 7.765172e+00 1.358900e+02
      endloop
   endfacet
   facet normal 0.000000e+00 0.000000e+00 1.000000e+00
      outer loop
         vertex 7.894088e+00 5.576200e+00 1.358900e+02
         vertex 7.765172e+00 6.057323e+00 1.358900e+02
         vertex 5.080000e+00 5.080000e+00 1.358900e+02
      endloop
   endfacet
   facet normal 0.000000e+00 0.000000e+00 1.000000e+00
      outer loop
         vertex 5.080000e+00 5.080000e+00 1.358900e+02
         vertex 7.765172e+00 6.057323e+00 1.358900e+02
         vertex 7.554668e+00 6.508750e+00 1.358900e+02
      endloop
   endfacet
   facet normal 0.000000e+00 0.000000e+00 1.000000e+00
      outer loop
         vertex 5.080000e+00 5.080000e+00 1.358900e+02
         vertex 7.554668e+00 6.508750e+00 1.358900e+02
         vertex 7.268972e+00 6.916766e+00 1.358900e+02
      endloop
   endfacet
   facet normal 9.961947e-01 8.715599e-02 0.000000e+00
      outer loop
         vertex 1.016000e+01 5.080000e+00 2.540000e+00
         vertex 1.008282e+01 5.962133e+00 0.000000e+00
         vertex 1.008282e+01 5.962133e+00 2.540000e+00
      endloop
   endfacet
   facet normal 9.659259e-01 2.588187e-01 0.000000e+00
      outer loop
         vertex 1.008282e+01 5.962133e+00 2.540000e+00
         vertex 1.008282e+01 5.962133e+00 0.000000e+00
         vertex 9.853639e+00 6.817462e+00 0.000000e+00
      endloop
   endfacet
   facet normal 9.659259e-01 2.588187e-01 0.000000e+00
      outer loop
         vertex 1.008282e+01 5.962133e+00 2.540000e+00
         vertex 9.853639e+00 6.817462e+00 0.000000e+00
         vertex 9.853639e+00 6.817462e+00 2.540000e+00
      endloop
   endfacet
   facet normal 9.063077e-01 4.226184e-01 0.000000e+00
      outer loop
         vertex 9.853639e+00 6.817462e+00 2.540000e+00
         vertex 9.853639e+00 6.817462e+00 0.000000e+00
         vertex 9.479409e+00 7.620000e+00 0.000000e+00
      endloop
   endfacet
   facet normal 9.063077e-01 4.226184e-01 0.000000e+00
      outer loop
         vertex 9.853639e+00 6.817462e+00 2.540000e+00
         vertex 9.479409e+00 7.620000e+00 0.000000e+00
         vertex 9.479409e+00 7.620000e+00 2.540000e+00
      endloop
   endfacet
   facet normal 8.191520e-01 5.735764e-01 0.000000e+00
      outer loop
         vertex 9.479409e+00 7.620000e+00 2.540000e+00
         vertex 9.479409e+00 7.620000e+00 0.000000e+00
         vertex 8.971506e+00 8.345361e+00 0.000000e+00
      endloop
   endfacet
   facet normal 8.191520e-01 5.735764e-01 0.000000e+00
      outer loop
         vertex 9.479409e+00 7.620000e+00 2.540000e+00
         vertex 8.971506e+00 8.345361e+00 0.000000e+00
         vertex 8.971506e+00 8.345361e+00 2.540000e+00
      endloop
   endfacet
   facet normal 7.071068e-01 7.071068e-01 0.000000e+00
      outer loop
         vertex 8.971506e+00 8.345361e+00 2.540000e+00
         vertex 8.971506e+00 8.345361e+00 0.000000e+00
         vertex 8.345361e+00 8.971506e+00 0.000000e+00
      endloop
   endfacet
   facet normal 7.071068e-01 7.071068e-01 0.000000e+00
      outer loop
         vertex 8.971506e+00 8.345361e+00 2.540000e+00
         vertex 8.345361e+00 8.971506e+00 0.000000e+00
         vertex 8.345361e+00 8.971506e+00 2.540000e+00
      endloop
   endfacet
   facet normal 5.735764e-01 8.191520e-01 0.000000e+00
      outer loop
         vertex 8.345361e+00 8.971506e+00 2.540000e+00
         vertex 8.345361e+00 8.971506e+00 0.000000e+00
         vertex 7.620000e+00 9.479409e+00 0.000000e+00
      endloop
   endfacet
   facet normal 5.735764e-01 8.191520e-01 0.000000e+00
      outer loop
         vertex 8.345361e+00 8.971506e+00 2.540000e+00
         vertex 7.620000e+00 9.479409e+00 0.000000e+00
         vertex 7.620000e+00 9.479409e+00 2.540000e+00
      endloop
   endfacet
   facet normal 4.226184e-01 9.063077e-01 0.000000e+00
      outer loop
         vertex 7.620000e+00 9.479409e+00 2.540000e+00
         vertex 7.620000e+00 9.479409e+00 0.000000e+00
         vertex 6.817462e+00 9.853639e+00 0.000000e+00
      endloop
   endfacet
   facet normal 4.226184e-01 9.063077e-01 0.000000e+00
      outer loop
         vertex 7.620000e+00 9.479409e+00 2.540000e+00
         vertex 6.817462e+00 9.853639e+00 0.000000e+00
         vertex 6.817462e+00 9.853639e+00 2.540000e+00
      endloop
   endfacet
   facet normal 2.588187e-01 9.659259e-01 0.000000e+00
      outer loop
         vertex 6.817462e+00 9.853639e+00 2.540000e+00
         vertex 6.817462e+00 9.853639e+00 0.000000e+00
         vertex 5.962133e+00 1.008282e+01 0.000000e+00
      endloop
   endfacet
   facet normal 2.588187e-01 9.659259e-01 0.000000e+00
      outer loop
         vertex 6.817462e+00 9.853639e+00 2.540000e+00
         vertex 5.962133e+00 1.008282e+01 0.000000e+00
         vertex 5.962133e+00 1.008282e+01 2.540000e+00
      endloop
   endfacet
   facet normal 8.715599e-02 9.961947e-01 0.000000e+00
      outer loop
         vertex 5.962133e+00 1.008282e+01 2.540000e+00
         vertex 5.962133e+00 1.008282e+01 0.000000e+00
         vertex 5.080000e+00 1.016000e+01 0.000000e+00
      endloop
   endfacet
   facet normal 8.715599e-02 9.961947e-01 0.000000e+00
      outer loop
         vertex 5.962133e+00 1.008282e+01 2.540000e+00
         vertex 5.080000e+00 1.016000e+01 0.000000e+00
         vertex 5.080000e+00 1.016000e+01 2.540000e+00
      endloop
   endfacet
   facet normal -8.715599e-02 9.961947e-01 0.000000e+00
      outer loop
         vertex 5.080000e+00 1.016000e+01 2.540000e+00
         vertex 5.080000e+00 1.016000e+01 0.000000e+00
         vertex 4.197867e+00 1.008282e+01 0.000000e+00
      endloop
   endfacet
   facet normal -8.715599e-02 9.961947e-01 0.000000e+00
      outer loop
         vertex 5.080000e+00 1.016000e+01 2.540000e+00
         vertex 4.197867e+00 1.008282e+01 0.000000e+00
         vertex 4.197867e+00 1.008282e+01 2.540000e+00
      endloop
   endfacet
   facet normal -2.588187e-01 9.659259e-01 0.000000e+00
      outer loop
         vertex 4.197867e+00 1.008282e+01 2.540000e+00
         vertex 4.197867e+00 1.008282e+01 0.000000e+00
         vertex 3.342538e+00 9.853639e+00 0.000000e+00
      endloop
   endfacet
   facet normal -2.588187e-01 9.659259e-01 0.000000e+00
      outer loop
         vertex 4.197867e+00 1.008282e+01 2.540000e+00
         vertex 3.342538e+00 9.853639e+00 0.000000e+00
         vertex 3.342538e+00 9.853639e+00 2.540000e+00
      endloop
   endfacet
   facet normal -4.226184e-01 9.063077e-01 0.000000e+00
      outer loop
         vertex 3.342538e+00 9.853639e+00 2.540000e+00
         vertex 3.342538e+00 9.853639e+00 0.000000e+00
         vertex 2.540000e+00 9.479409e+00 0.000000e+00
      endloop
   endfacet
   facet normal -4.226184e-01 9.063077e-01 0.000000e+00
      outer loop
         vertex 3.342538e+00 9.853639e+00 2.540000e+00
         vertex 2.540000e+00 9.479409e+00 0.000000e+00
         vertex 2.540000e+00 9.479409e+00 2.540000e+00
      endloop
   endfacet
   facet normal -5.735764e-01 8.191520e-01 0.000000e+00
      outer loop
         vertex 2.540000e+00 9.479409e+00 2.540000e+00
         vertex 2.540000e+00 9.479409e+00 0.000000e+00
         vertex 1.814639e+00 8.971506e+00 0.000000e+00
      endloop
   endfacet
   facet normal -5.735764e-01 8.191520e-01 0.000000e+00
      outer loop
         vertex 2.540000e+00 9.479409e+00 2.540000e+00
         vertex 1.814639e+00 8.971506e+00 0.000000e+00
         vertex 1.814639e+00 8.971506e+00 2.540000e+00
      endloop
   endfacet
   facet normal -7.071068e-01 7.071068e-01 0.000000e+00
      outer loop
         vertex 1.814639e+00 8.971506e+00 2.540000e+00
         vertex 1.814639e+00 8.971506e+00 0.000000e+00
         vertex 1.188494e+00 8.345361e+00 0.000000e+00
      endloop
   endfacet
   facet normal -7.071068e-01 7.071068e-01 0.000000e+00
      outer loop
         vertex 1.814639e+00 8.971506e+00 2.540000e+00
         vertex 1.188494e+00 8.345361e+00 0.000000e+00
         vertex 1.188494e+00 8.345361e+00 2.540000e+00
      endloop
   endfacet
   facet normal -8.191520e-01 5.735764e-01 0.000000e+00
      outer loop
         vertex 1.188494e+00 8.345361e+00 2.540000e+00
         vertex 1.188494e+00 8.345361e+00 0.000000e+00
         vertex 6.805910e-01 7.620000e+00 0.000000e+00
      endloop
   endfacet
   facet normal -8.191520e-01 5.735764e-01 0.000000e+00
      outer loop
         vertex 1.188494e+00 8.345361e+00 2.540000e+00
         vertex 6.805910e-01 7.620000e+00 0.000000e+00
         vertex 6.805910e-01 7.620000e+00 2.540000e+00
      endloop
   endfacet
   facet normal -9.063077e-01 4.226184e-01 0.000000e+00
      outer loop
         vertex 6.805910e-01 7.620000e+00 2.540000e+00
         vertex 6.805910e-01 7.620000e+00 0.000000e+00
         vertex 3.063614e-01 6.817462e+00 0.000000e+00
      endloop
   endfacet
   facet normal -9.063077e-01 4.226184e-01 0.000000e+00
      outer loop
         vertex 6.805910e-01 7.620000e+00 2.540000e+00
         vertex 3.063614e-01 6.817462e+00 0.000000e+00
         vertex 3.063614e-01 6.817462e+00 2.540000e+00
      endloop
   endfacet
   facet normal -9.659259e-01 2.588187e-01 0.000000e+00
      outer loop
         vertex 3.063614e-01 6.817462e+00 2.540000e+00
         vertex 3.063614e-01 6.817462e+00 0.000000e+00
         vertex 7.717684e-02 5.962133e+00 0.000000e+00
      endloop
   endfacet
   facet normal -9.659259e-01 2.588187e-01 0.000000e+00
      outer loop
         vertex 3.063614e-01 6.817462e+00 2.540000e+00
         vertex 7.717684e-02 5.962133e+00 0.000000e+00
         vertex 7.717684e-02 5.962133e+00 2.540000e+00
      endloop
   endfacet
   facet normal -9.961947e-01 8.715599e-02 0.000000e+00
      outer loop
         vertex 7.717684e-02 5.962133e+00 2.540000e+00
         vertex 7.717684e-02 5.962133e+00 0.000000e+00
         vertex 0.000000e+00 5.080000e+00 0.000000e+00
      endloop
   endfacet
   facet normal -9.961947e-01 8.715599e-02 0.000000e+00
      outer loop
         vertex 7.717684e-02 5.962133e+00 2.540000e+00
         vertex 0.000000e+00 5.080000e+00 0.000000e+00
         vertex 0.000000e+00 5.080000e+00 2.540000e+00
      endloop
   endfacet
   facet normal -9.961947e-01 -8.715599e-02 -0.000000e+00
      outer loop
         vertex 0.000000e+00 5.080000e+00 2.540000e+00
         vertex 0.000000e+00 5.080000e+00 0.000000e+00
         vertex 7.717684e-02 4.197867e+00 0.000000e+00
      endloop
   endfacet
   facet normal -9.961947e-01 -8.715599e-02 0.000000e+00
      outer loop
         vertex 0.000000e+00 5.080000e+00 2.540000e+00
         vertex 7.717684e-02 4.197867e+00 0.000000e+00
         vertex 7.717684e-02 4.197867e+00 2.540000e+00
      endloop
   endfacet
   facet normal -9.659259e-01 -2.588187e-01 -0.000000e+00
      outer loop
         vertex 7.717684e-02 4.197867e+00 2.540000e+00
         vertex 7.717684e-02 4.197867e+00 0.000000e+00
         vertex 3.063614e-01 3.342538e+00 0.000000e+00
      endloop
   endfacet
   facet normal -9.659259e-01 -2.588187e-01 0.000000e+00
      outer loop
         vertex 7.717684e-02 4.197867e+00 2.540000e+00
         vertex 3.063614e-01 3.342538e+00 0.000000e+00
         vertex 3.063614e-01 3.342538e+00 2.540000e+00
      endloop
   endfacet
   facet normal -9.063077e-01 -4.226184e-01 -0.000000e+00
      outer loop
         vertex 3.063614e-01 3.342538e+00 2.540000e+00
         vertex 3.063614e-01 3.342538e+00 0.000000e+00
         vertex 6.805910e-01 2.540000e+00 0.000000e+00
      endloop
   endfacet
   facet normal -9.063077e-01 -4.226184e-01 0.000000e+00
      outer loop
         vertex 3.063614e-01 3.342538e+00 2.540000e+00
         vertex 6.805910e-01 2.540000e+00 0.000000e+00
         vertex 6.805910e-01 2.540000e+00 2.540000e+00
      endloop
   endfacet
   facet normal -8.191520e-01 -5.735764e-01 -0.000000e+00
      outer loop
         vertex 6.805910e-01 2.540000e+00 2.540000e+00
         vertex 6.805910e-01 2.540000e+00 0.000000e+00
         vertex 1.188494e+00 1.814639e+00 0.000000e+00
      endloop
   endfacet
   facet normal -8.191520e-01 -5.735764e-01 0.000000e+00
      outer loop
         vertex 6.805910e-01 2.540000e+00 2.540000e+00
         vertex 1.188494e+00 1.814639e+00 0.000000e+00
         vertex 1.188494e+00 1.814639e+00 2.540000e+00
      endloop
   endfacet
   facet normal -7.071068e-01 -7.071068e-01 -0.000000e+00
      outer loop
         vertex 1.188494e+00 1.814639e+00 2.540000e+00
         vertex 1.188494e+00 1.814639e+00 0.000000e+00
         vertex 1.814639e+00 1.188494e+00 0.000000e+00
      endloop
   endfacet
   facet normal -7.071068e-01 -7.071068e-01 0.000000e+00
      outer loop
         vertex 1.188494e+00 1.814639e+00 2.540000e+00
         vertex 1.814639e+00 1.188494e+00 0.000000e+00
         vertex 1.814639e+00 1.188494e+00 2.540000e+00
      endloop
   endfacet
   facet normal -5.735764e-01 -8.191520e-01 -0.000000e+00
      outer loop
         vertex 1.814639e+00 1.188494e+00 2.540000e+00
         vertex 1.814639e+00 1.188494e+00 0.000000e+00
         vertex 2.540000e+00 6.805910e-01 0.000000e+00
      endloop
   endfacet
   facet normal -5.735764e-01 -8.191520e-01 0.000000e+00
      outer loop
         vertex 1.814639e+00 1.188494e+00 2.540000e+00
         vertex 2.540000e+00 6.805910e-01 0.000000e+00
         vertex 2.540000e+00 6.805910e-01 2.540000e+00
      endloop
   endfacet
   facet normal -4.226184e-01 -9.063077e-01 -0.000000e+00
      outer loop
         vertex 2.540000e+00 6.805910e-01 2.540000e+00
         vertex 2.540000e+00 6.805910e-01 0.000000e+00
         vertex 3.342538e+00 3.063614e-01 0.000000e+00
      endloop
   endfacet
   facet normal -4.226184e-01 -9.063077e-01 0.000000e+00
      outer loop
         vertex 2.540000e+00 6.805910e-01 2.540000e+00
         vertex 3.342538e+00 3.063614e-01 0.000000e+00
         vertex 3.342538e+00 3.063614e-01 2.540000e+00
      endloop
   endfacet
   facet normal -2.588187e-01 -9.659259e-01 -0.000000e+00
      outer loop
         vertex 3.342538e+00 3.063614e-01 2.540000e+00
         vertex 3.342538e+00 3.063614e-01 0.000000e+00
         vertex 4.197867e+00 7.717684e-02 0.000000e+00
      endloop
   endfacet
   facet normal -2.588187e-01 -9.659259e-01 0.000000e+00
      outer loop
         vertex 3.342538e+00 3.063614e-01 2.540000e+00
         vertex 4.197867e+00 7.717684e-02 0.000000e+00
         vertex 4.197867e+00 7.717684e-02 2.540000e+00
      endloop
   endfacet
   facet normal -8.715599e-02 -9.961947e-01 -0.000000e+00
      outer loop
         vertex 4.197867e+00 7.717684e-02 2.540000e+00
         vertex 4.197867e+00 7.717684e-02 0.000000e+00
         vertex 5.080000e+00 0.000000e+00 0.000000e+00
      endloop
   endfacet
   facet normal -8.715599e-02 -9.961947e-01 0.000000e+00
      outer loop
         vertex 4.197867e+00 7.717684e-02 2.540000e+00
         vertex 5.080000e+00 0.000000e+00 0.000000e+00
         vertex 5.080000e+00 0.000000e+00 2.540000e+00
      endloop
   endfacet
   facet normal 8.715599e-02 -9.961947e-01 0.000000e+00
      outer loop
         vertex 5.080000e+00 0.000000e+00 2.540000e+00
         vertex 5.080000e+00 0.000000e+00 0.000000e+00
         vertex 5.962133e+00 7.717684e-02 0.000000e+00
      endloop
   endfacet
   facet normal 8.715599e-02 -9.961947e-01 0.000000e+00
      outer loop
         vertex 5.080000e+00 0.000000e+00 2.540000e+00
         vertex 5.962133e+00 7.717684e-02 0.000000e+00
         vertex 5.962133e+00 7.717684e-02 2.540000e+00
      endloop
   endfacet
   facet normal 2.588187e-01 -9.659259e-01 0.000000e+00
      outer loop
         vertex 5.962133e+00 7.717684e-02 2.540000e+00
         vertex 5.962133e+00 7.717684e-02 0.000000e+00
         vertex 6.817462e+00 3.063614e-01 0.000000e+00
      endloop
   endfacet
   facet normal 2.588187e-01 -9.659259e-01 0.000000e+00
      outer loop
         vertex 5.962133e+00 7.717684e-02 2.540000e+00
         vertex 6.817462e+00 3.063614e-01 0.000000e+00
         vertex 6.817462e+00 3.063614e-01 2.540000e+00
      endloop
   endfacet
   facet normal 4.226184e-01 -9.063077e-01 0.000000e+00
      outer loop
         vertex 6.817462e+00 3.063614e-01 2.540000e+00
         vertex 6.817462e+00 3.063614e-01 0.000000e+00
         vertex 7.620000e+00 6.805910e-01 0.000000e+00
      endloop
   endfacet
   facet normal 4.226184e-01 -9.063077e-01 0.000000e+00
      outer loop
         vertex 6.817462e+00 3.063614e-01 2.540000e+00
         vertex 7.620000e+00 6.805910e-01 0.000000e+00
         vertex 7.620000e+00 6.805910e-01 2.540000e+00
      endloop
   endfacet
   facet normal 5.735764e-01 -8.191520e-01 0.000000e+00
      outer loop
         vertex 7.620000e+00 6.805910e-01 2.540000e+00
         vertex 7.620000e+00 6.805910e-01 0.000000e+00
         vertex 8.345361e+00 1.188494e+00 0.000000e+00
      endloop
   endfacet
   facet normal 5.735764e-01 -8.191520e-01 0.000000e+00
      outer loop
         vertex 7.620000e+00 6.805910e-01 2.540000e+00
         vertex 8.345361e+00 1.188494e+00 0.000000e+00
         vertex 8.345361e+00 1.188494e+00 2.540000e+00
      endloop
   endfacet
   facet normal 7.071068e-01 -7.071068e-01 0.000000e+00
      outer loop
         vertex 8.345361e+00 1.188494e+00 2.540000e+00
         vertex 8.345361e+00 1.188494e+00 0.000000e+00
         vertex 8.971506e+00 1.814639e+00 0.000000e+00
      endloop
   endfacet
   facet normal 7.071068e-01 -7.071068e-01 0.000000e+00
      outer loop
         vertex 8.345361e+00 1.188494e+00 2.540000e+00
         vertex 8.971506e+00 1.814639e+00 0.000000e+00
         vertex 8.971506e+00 1.814639e+00 2.540000e+00
      endloop
   endfacet
   facet normal 8.191520e-01 -5.735764e-01 0.000000e+00
      outer loop
         vertex 8.971506e+00 1.814639e+00 2.540000e+00
         vertex 8.971506e+00 1.814639e+00 0.000000e+00
         vertex 9.479409e+00 2.540000e+00 0.000000e+00
      endloop
   endfacet
   facet normal 8.191520e-01 -5.735764e-01 0.000000e+00
      outer loop
         vertex 8.971506e+00 1.814639e+00 2.540000e+00
         vertex 9.479409e+00 2.540000e+00 0.000000e+00
         vertex 9.479409e+00 2.540000e+00 2.540000e+00
      endloop
   endfacet
   facet normal 9.063077e-01 -4.226184e-01 0.000000e+00
      outer loop
         vertex 9.479409e+00 2.540000e+00 2.540000e+00
         vertex 9.479409e+00 2.540000e+00 0.000000e+00
         vertex 9.853639e+00 3.342538e+00 0.000000e+00
      endloop
   endfacet
   facet normal 9.063077e-01 -4.226184e-01 0.000000e+00
      outer loop
         vertex 9.479409e+00 2.540000e+00 2.540000e+00
         vertex 9.853639e+00 3.342538e+00 0.000000e+00
         vertex 9.853639e+00 3.342538e+00 2.540000e+00
      endloop
   endfacet
   facet normal 9.659259e-01 -2.588187e-01 0.000000e+00
      outer loop
         vertex 9.853639e+00 3.342538e+00 2.540000e+00
         vertex 9.853639e+00 3.342538e+00 0.000000e+00
         vertex 1.008282e+01 4.197867e+00 0.000000e+00
      endloop
   endfacet
   facet normal 9.659259e-01 -2.588187e-01 0.000000e+00
      outer loop
         vertex 9.853639e+00 3.342538e+00 2.540000e+00
         vertex 1.008282e+01 4.197867e+00 0.000000e+00
         vertex 1.008282e+01 4.197867e+00 2.540000e+00
      endloop
   endfacet
   facet normal 9.961947e-01 -8.715599e-02 0.000000e+00
      outer loop
         vertex 1.008282e+01 4.197867e+00 2.540000e+00
         vertex 1.008282e+01 4.197867e+00 0.000000e+00
         vertex 1.016000e+01 5.080000e+00 0.000000e+00
      endloop
   endfacet
   facet normal 9.961947e-01 -8.715599e-02 0.000000e+00
      outer loop
         vertex 1.008282e+01 4.197867e+00 2.540000e+00
         vertex 1.016000e+01 5.080000e+00 0.000000e+00
         vertex 1.016000e+01 5.080000e+00 2.540000e+00
      endloop
   endfacet
   facet normal 9.961947e-01 8.715599e-02 0.000000e+00
      outer loop
         vertex 1.016000e+01 5.080000e+00 2.540000e+00
         vertex 1.016000e+01 5.080000e+00 0.000000e+00
         vertex 1.008282e+01 5.962133e+00 0.000000e+00
      endloop
   endfacet
   facet normal 0.000000e+00 0.000000e+00 -1.000000e+00
      outer loop
         vertex 3.063614e-01 3.342538e+00 0.000000e+00
         vertex 7.717684e-02 4.197867e+00 0.000000e+00
         vertex 5.080000e+00 5.080000e+00 0.000000e+00
      endloop
   endfacet
   facet normal -0.000000e+00 0.000000e+00 -1.000000e+00
      outer loop
         vertex 5.080000e+00 5.080000e+00 0.000000e+00
         vertex 7.717684e-02 4.197867e+00 0.000000e+00
         vertex 0.000000e+00 5.080000e+00 0.000000e+00
      endloop
   endfacet
   facet normal 0.000000e+00 0.000000e+00 -1.000000e+00
      outer loop
         vertex 5.080000e+00 5.080000e+00 0.000000e+00
         vertex 0.000000e+00 5.080000e+00 0.000000e+00
         vertex 7.717684e-02 5.962133e+00 0.000000e+00
      endloop
   endfacet
   facet normal 0.000000e+00 0.000000e+00 -1.000000e+00
      outer loop
         vertex 1.814639e+00 1.188494e+00 0.000000e+00
         vertex 1.188494e+00 1.814639e+00 0.000000e+00
         vertex 5.080000e+00 5.080000e+00 0.000000e+00
      endloop
   endfacet
   facet normal 0.000000e+00 0.000000e+00 -1.000000e+00
      outer loop
         vertex 5.080000e+00 5.080000e+00 0.000000e+00
         vertex 1.188494e+00 1.814639e+00 0.000000e+00
         vertex 6.805910e-01 2.540000e+00 0.000000e+00
      endloop
   endfacet
   facet normal 0.000000e+00 0.000000e+00 -1.000000e+00
      outer loop
         vertex 5.080000e+00 5.080000e+00 0.000000e+00
         vertex 6.805910e-01 2.540000e+00 0.000000e+00
         vertex 3.063614e-01 3.342538e+00 0.000000e+00
      endloop
   endfacet
   facet normal 0.000000e+00 0.000000e+00 -1.000000e+00
      outer loop
         vertex 4.197867e+00 7.717684e-02 0.000000e+00
         vertex 3.342538e+00 3.063614e-01 0.000000e+00
         vertex 5.080000e+00 5.080000e+00 0.000000e+00
      endloop
   endfacet
   facet normal 0.000000e+00 0.000000e+00 -1.000000e+00
      outer loop
         vertex 5.080000e+00 5.080000e+00 0.000000e+00
         vertex 3.342538e+00 3.063614e-01 0.000000e+00
         vertex 2.540000e+00 6.805910e-01 0.000000e+00
      endloop
   endfacet
   facet normal 0.000000e+00 0.000000e+00 -1.000000e+00
      outer loop
         vertex 5.080000e+00 5.080000e+00 0.000000e+00
         vertex 2.540000e+00 6.805910e-01 0.000000e+00
         vertex 1.814639e+00 1.188494e+00 0.000000e+00
      endloop
   endfacet
   facet normal -0.000000e+00 0.000000e+00 -1.000000e+00
      outer loop
         vertex 6.817462e+00 3.063614e-01 0.000000e+00
         vertex 5.962133e+00 7.717684e-02 0.000000e+00
         vertex 5.080000e+00 5.080000e+00 0.000000e+00
      endloop
   endfacet
   facet normal 0.000000e+00 -0.000000e+00 -1.000000e+00
      outer loop
         vertex 5.080000e+00 5.080000e+00 0.000000e+00
         vertex 5.962133e+00 7.717684e-02 0.000000e+00
         vertex 5.080000e+00 0.000000e+00 0.000000e+00
      endloop
   endfacet
   facet normal 0.000000e+00 0.000000e+00 -1.000000e+00
      outer loop
         vertex 5.080000e+00 5.080000e+00 0.000000e+00
         vertex 5.080000e+00 0.000000e+00 0.000000e+00
         vertex 4.197867e+00 7.717684e-02 0.000000e+00
      endloop
   endfacet
   facet normal -0.000000e+00 0.000000e+00 -1.000000e+00
      outer loop
         vertex 8.971506e+00 1.814639e+00 0.000000e+00
         vertex 8.345361e+00 1.188494e+00 0.000000e+00
         vertex 5.080000e+00 5.080000e+00 0.000000e+00
      endloop
   endfacet
   facet normal 0.000000e+00 0.000000e+00 -1.000000e+00
      outer loop
         vertex 5.080000e+00 5.080000e+00 0.000000e+00
         vertex 8.345361e+00 1.188494e+00 0.000000e+00
         vertex 7.620000e+00 6.805910e-01 0.000000e+00
      endloop
   endfacet
   facet normal 0.000000e+00 0.000000e+00 -1.000000e+00
      outer loop
         vertex 5.080000e+00 5.080000e+00 0.000000e+00
         vertex 7.620000e+00 6.805910e-01 0.000000e+00
         vertex 6.817462e+00 3.063614e-01 0.000000e+00
      endloop
   endfacet
   facet normal -0.000000e+00 0.000000e+00 -1.000000e+00
      outer loop
         vertex 1.008282e+01 4.197867e+00 0.000000e+00
         vertex 9.853639e+00 3.342538e+00 0.000000e+00
         vertex 5.080000e+00 5.080000e+00 0.000000e+00
      endloop
   endfacet
   facet normal 0.000000e+00 0.000000e+00 -1.000000e+00
      outer loop
         vertex 5.080000e+00 5.080000e+00 0.000000e+00
         vertex 9.853639e+00 3.342538e+00 0.000000e+00
         vertex 9.479409e+00 2.540000e+00 0.000000e+00
      endloop
   endfacet
   facet normal 0.000000e+00 0.000000e+00 -1.000000e+00
      outer loop
         vertex 5.080000e+00 5.080000e+00 0.000000e+00
         vertex 9.479409e+00 2.540000e+00 0.000000e+00
         vertex 8.971506e+00 1.814639e+00 0.000000e+00
      endloop
   endfacet
   facet normal 0.000000e+00 -0.000000e+00 -1.000000e+00
      outer loop
         vertex 9.853639e+00 6.817462e+00 0.000000e+00
         vertex 1.008282e+01 5.962133e+00 0.000000e+00
         vertex 5.080000e+00 5.080000e+00 0.000000e+00
      endloop
   endfacet
   facet normal 0.000000e+00 0.000000e+00 -1.000000e+00
      outer loop
         vertex 5.080000e+00 5.080000e+00 0.000000e+00
         vertex 1.008282e+01 5.962133e+00 0.000000e+00
         vertex 1.016000e+01 5.080000e+00 0.000000e+00
      endloop
   endfacet
   facet normal 0.000000e+00 0.000000e+00 -1.000000e+00
      outer loop
         vertex 5.080000e+00 5.080000e+00 0.000000e+00
         vertex 1.016000e+01 5.080000e+00 0.000000e+00
         vertex 1.008282e+01 4.197867e+00 0.000000e+00
      endloop
   endfacet
   facet normal 0.000000e+00 -0.000000e+00 -1.000000e+00
      outer loop
         vertex 8.345361e+00 8.971506e+00 0.000000e+00
         vertex 8.971506e+00 8.345361e+00 0.000000e+00
         vertex 5.080000e+00 5.080000e+00 0.000000e+00
      endloop
   endfacet
   facet normal 0.000000e+00 0.000000e+00 -1.000000e+00
      outer loop
         vertex 5.080000e+00 5.080000e+00 0.000000e+00
         vertex 8.971506e+00 8.345361e+00 0.000000e+00
         vertex 9.479409e+00 7.620000e+00 0.000000e+00
      endloop
   endfacet
   facet normal 0.000000e+00 0.000000e+00 -1.000000e+00
      outer loop
         vertex 5.080000e+00 5.080000e+00 0.000000e+00
         vertex 9.479409e+00 7.620000e+00 0.000000e+00
         vertex 9.853639e+00 6.817462e+00 0.000000e+00
      endloop
   endfacet
   facet normal 0.000000e+00 -0.000000e+00 -1.000000e+00
      outer loop
         vertex 5.962133e+00 1.008282e+01 0.000000e+00
         vertex 6.817462e+00 9.853639e+00 0.000000e+00
         vertex 5.080000e+00 5.080000e+00 0.000000e+00
      endloop
   endfacet
   facet normal 0.000000e+00 0.000000e+00 -1.000000e+00
      outer loop
         vertex 5.080000e+00 5.080000e+00 0.000000e+00
         vertex 6.817462e+00 9.853639e+00 0.000000e+00
         vertex 7.620000e+00 9.479409e+00 0.000000e+00
      endloop
   endfacet
   facet normal 0.000000e+00 0.000000e+00 -1.000000e+00
      outer loop
         vertex 5.080000e+00 5.080000e+00 0.000000e+00
         vertex 7.620000e+00 9.479409e+00 0.000000e+00
         vertex 8.345361e+00 8.971506e+00 0.000000e+00
      endloop
   endfacet
   facet normal 0.000000e+00 0.000000e+00 -1.000000e+00
      outer loop
         vertex 3.342538e+00 9.853639e+00 0.000000e+00
         vertex 4.197867e+00 1.008282e+01 0.000000e+00
         vertex 5.080000e+00 5.080000e+00 0.000000e+00
      endloop
   endfacet
   facet normal 0.000000e+00 0.000000e+00 -1.000000e+00
      outer loop
         vertex 5.080000e+00 5.080000e+00 0.000000e+00
         vertex 4.197867e+00 1.008282e+01 0.000000e+00
         vertex 5.080000e+00 1.016000e+01 0.000000e+00
      endloop
   endfacet
   facet normal 0.000000e+00 0.000000e+00 -1.000000e+00
      outer loop
         vertex 5.080000e+00 5.080000e+00 0.000000e+00
         vertex 5.080000e+00 1.016000e+01 0.000000e+00
         vertex 5.962133e+00 1.008282e+01 0.000000e+00
      endloop
   endfacet
   facet normal 0.000000e+00 0.000000e+00 -1.000000e+00
      outer loop
         vertex 1.188494e+00 8.345361e+00 0.000000e+00
         vertex 1.814639e+00 8.971506e+00 0.000000e+00
         vertex 5.080000e+00 5.080000e+00 0.000000e+00
      endloop
   endfacet
   facet normal 0.000000e+00 0.000000e+00 -1.000000e+00
      outer loop
         vertex 5.080000e+00 5.080000e+00 0.000000e+00
         vertex 1.814639e+00 8.971506e+00 0.000000e+00
         vertex 2.540000e+00 9.479409e+00 0.000000e+00
      endloop
   endfacet
   facet normal 0.000000e+00 0.000000e+00 -1.000000e+00
      outer loop
         vertex 5.080000e+00 5.080000e+00 0.000000e+00
         vertex 2.540000e+00 9.479409e+00 0.000000e+00
         vertex 3.342538e+00 9.853639e+00 0.000000e+00
      endloop
   endfacet
   facet normal 0.000000e+00 0.000000e+00 -1.000000e+00
      outer loop
         vertex 7.717684e-02 5.962133e+00 0.000000e+00
         vertex 3.063614e-01 6.817462e+00 0.000000e+00
         vertex 5.080000e+00 5.080000e+00 0.000000e+00
      endloop
   endfacet
   facet normal 0.000000e+00 0.000000e+00 -1.000000e+00
      outer loop
         vertex 5.080000e+00 5.080000e+00 0.000000e+00
         vertex 3.063614e-01 6.817462e+00 0.000000e+00
         vertex 6.805910e-01 7.620000e+00 0.000000e+00
      endloop
   endfacet
   facet normal 0.000000e+00 0.000000e+00 -1.000000e+00
      outer loop
         vertex 5.080000e+00 5.080000e+00 0.000000e+00
         vertex 6.805910e-01 7.620000e+00 0.000000e+00
         vertex 1.188494e+00 8.345361e+00 0.000000e+00
      endloop
   endfacet
   facet normal 0.000000e+00 -0.000000e+00 1.000000e+00
      outer loop
         vertex 7.765172e+00 6.057323e+00 2.540000e+00
         vertex 9.853639e+00 6.817462e+00 2.540000e+00
         vertex 7.554668e+00 6.508750e+00 2.540000e+00
      endloop
   endfacet
   facet normal 0.000000e+00 0.000000e+00 1.000000e+00
      outer loop
         vertex 7.554668e+00 6.508750e+00 2.540000e+00
         vertex 9.853639e+00 6.817462e+00 2.540000e+00
         vertex 9.479409e+00 7.620000e+00 2.540000e+00
      endloop
   endfacet
   facet normal 0.000000e+00 -0.000000e+00 1.000000e+00
      outer loop
         vertex 7.554668e+00 6.508750e+00 2.540000e+00
         vertex 9.479409e+00 7.620000e+00 2.540000e+00
         vertex 7.268972e+00 6.916766e+00 2.540000e+00
      endloop
   endfacet
   facet normal 0.000000e+00 0.000000e+00 1.000000e+00
      outer loop
         vertex 7.268972e+00 6.916766e+00 2.540000e+00
         vertex 9.479409e+00 7.620000e+00 2.540000e+00
         vertex 8.971506e+00 8.345361e+00 2.540000e+00
      endloop
   endfacet
   facet normal 0.000000e+00 -0.000000e+00 1.000000e+00
      outer loop
         vertex 7.268972e+00 6.916766e+00 2.540000e+00
         vertex 8.971506e+00 8.345361e+00 2.540000e+00
         vertex 6.916766e+00 7.268972e+00 2.540000e+00
      endloop
   endfacet
   facet normal 0.000000e+00 0.000000e+00 1.000000e+00
      outer loop
         vertex 6.916766e+00 7.268972e+00 2.540000e+00
         vertex 8.971506e+00 8.345361e+00 2.540000e+00
         vertex 8.345361e+00 8.971506e+00 2.540000e+00
      endloop
   endfacet
   facet normal 0.000000e+00 -0.000000e+00 1.000000e+00
      outer loop
         vertex 6.916766e+00 7.268972e+00 2.540000e+00
         vertex 8.345361e+00 8.971506e+00 2.540000e+00
         vertex 6.508750e+00 7.554668e+00 2.540000e+00
      endloop
   endfacet
   facet normal 0.000000e+00 0.000000e+00 1.000000e+00
      outer loop
         vertex 6.508750e+00 7.554668e+00 2.540000e+00
         vertex 8.345361e+00 8.971506e+00 2.540000e+00
         vertex 7.620000e+00 9.479409e+00 2.540000e+00
      endloop
   endfacet
   facet normal 0.000000e+00 -0.000000e+00 1.000000e+00
      outer loop
         vertex 6.508750e+00 7.554668e+00 2.540000e+00
         vertex 7.620000e+00 9.479409e+00 2.540000e+00
         vertex 6.057323e+00 7.765172e+00 2.540000e+00
      endloop
   endfacet
   facet normal 0.000000e+00 0.000000e+00 1.000000e+00
      outer loop
         vertex 6.057323e+00 7.765172e+00 2.540000e+00
         vertex 7.620000e+00 9.479409e+00 2.540000e+00
         vertex 6.817462e+00 9.853639e+00 2.540000e+00
      endloop
   endfacet
   facet normal 0.000000e+00 -0.000000e+00 1.000000e+00
      outer loop
         vertex 6.057323e+00 7.765172e+00 2.540000e+00
         vertex 6.817462e+00 9.853639e+00 2.540000e+00
         vertex 5.576200e+00 7.894088e+00 2.540000e+00
      endloop
   endfacet
   facet normal 0.000000e+00 0.000000e+00 1.000000e+00
      outer loop
         vertex 5.576200e+00 7.894088e+00 2.540000e+00
         vertex 6.817462e+00 9.853639e+00 2.540000e+00
         vertex 5.962133e+00 1.008282e+01 2.540000e+00
      endloop
   endfacet
   facet normal 0.000000e+00 -0.000000e+00 1.000000e+00
      outer loop
         vertex 5.576200e+00 7.894088e+00 2.540000e+00
         vertex 5.962133e+00 1.008282e+01 2.540000e+00
         vertex 5.080000e+00 7.937500e+00 2.540000e+00
      endloop
   endfacet
   facet normal 0.000000e+00 0.000000e+00 1.000000e+00
      outer loop
         vertex 5.080000e+00 7.937500e+00 2.540000e+00
         vertex 5.962133e+00 1.008282e+01 2.540000e+00
         vertex 5.080000e+00 1.016000e+01 2.540000e+00
      endloop
   endfacet
   facet normal 0.000000e+00 -0.000000e+00 1.000000e+00
      outer loop
         vertex 5.080000e+00 7.937500e+00 2.540000e+00
         vertex 5.080000e+00 1.016000e+01 2.540000e+00
         vertex 4.583800e+00 7.894088e+00 2.540000e+00
      endloop
   endfacet
   facet normal 0.000000e+00 -0.000000e+00 1.000000e+00
      outer loop
         vertex 4.583800e+00 7.894088e+00 2.540000e+00
         vertex 5.080000e+00 1.016000e+01 2.540000e+00
         vertex 4.197867e+00 1.008282e+01 2.540000e+00
      endloop
   endfacet
   facet normal 0.000000e+00 0.000000e+00 1.000000e+00
      outer loop
         vertex 4.583800e+00 7.894088e+00 2.540000e+00
         vertex 4.197867e+00 1.008282e+01 2.540000e+00
         vertex 4.102677e+00 7.765172e+00 2.540000e+00
      endloop
   endfacet
   facet normal 0.000000e+00 -0.000000e+00 1.000000e+00
      outer loop
         vertex 4.102677e+00 7.765172e+00 2.540000e+00
         vertex 4.197867e+00 1.008282e+01 2.540000e+00
         vertex 3.342538e+00 9.853639e+00 2.540000e+00
      endloop
   endfacet
   facet normal 0.000000e+00 0.000000e+00 1.000000e+00
      outer loop
         vertex 4.102677e+00 7.765172e+00 2.540000e+00
         vertex 3.342538e+00 9.853639e+00 2.540000e+00
         vertex 3.651250e+00 7.554668e+00 2.540000e+00
      endloop
   endfacet
   facet normal 0.000000e+00 0.000000e+00 1.000000e+00
      outer loop
         vertex 3.651250e+00 7.554668e+00 2.540000e+00
         vertex 3.342538e+00 9.853639e+00 2.540000e+00
         vertex 2.540000e+00 9.479409e+00 2.540000e+00
      endloop
   endfacet
   facet normal 0.000000e+00 0.000000e+00 1.000000e+00
      outer loop
         vertex 3.651250e+00 7.554668e+00 2.540000e+00
         vertex 2.540000e+00 9.479409e+00 2.540000e+00
         vertex 3.243234e+00 7.268972e+00 2.540000e+00
      endloop
   endfacet
   facet normal 0.000000e+00 0.000000e+00 1.000000e+00
      outer loop
         vertex 3.243234e+00 7.268972e+00 2.540000e+00
         vertex 2.540000e+00 9.479409e+00 2.540000e+00
         vertex 1.814639e+00 8.971506e+00 2.540000e+00
      endloop
   endfacet
   facet normal 0.000000e+00 0.000000e+00 1.000000e+00
      outer loop
         vertex 3.243234e+00 7.268972e+00 2.540000e+00
         vertex 1.814639e+00 8.971506e+00 2.540000e+00
         vertex 2.891028e+00 6.916766e+00 2.540000e+00
      endloop
   endfacet
   facet normal 0.000000e+00 0.000000e+00 1.000000e+00
      outer loop
         vertex 2.891028e+00 6.916766e+00 2.540000e+00
         vertex 1.814639e+00 8.971506e+00 2.540000e+00
         vertex 1.188494e+00 8.345361e+00 2.540000e+00
      endloop
   endfacet
   facet normal 0.000000e+00 0.000000e+00 1.000000e+00
      outer loop
         vertex 2.891028e+00 6.916766e+00 2.540000e+00
         vertex 1.188494e+00 8.345361e+00 2.540000e+00
         vertex 2.605333e+00 6.508750e+00 2.540000e+00
      endloop
   endfacet
   facet normal 0.000000e+00 0.000000e+00 1.000000e+00
      outer loop
         vertex 2.605333e+00 6.508750e+00 2.540000e+00
         vertex 1.188494e+00 8.345361e+00 2.540000e+00
         vertex 6.805910e-01 7.620000e+00 2.540000e+00
      endloop
   endfacet
   facet normal 0.000000e+00 0.000000e+00 1.000000e+00
      outer loop
         vertex 2.605333e+00 6.508750e+00 2.540000e+00
         vertex 6.805910e-01 7.620000e+00 2.540000e+00
         vertex 2.394828e+00 6.057323e+00 2.540000e+00
      endloop
   endfacet
   facet normal 0.000000e+00 0.000000e+00 1.000000e+00
      outer loop
         vertex 2.394828e+00 6.057323e+00 2.540000e+00
         vertex 6.805910e-01 7.620000e+00 2.540000e+00
         vertex 3.063614e-01 6.817462e+00 2.540000e+00
      endloop
   endfacet
   facet normal 0.000000e+00 0.000000e+00 1.000000e+00
      outer loop
         vertex 2.394828e+00 6.057323e+00 2.540000e+00
         vertex 3.063614e-01 6.817462e+00 2.540000e+00
         vertex 2.265912e+00 5.576200e+00 2.540000e+00
      endloop
   endfacet
   facet normal 0.000000e+00 0.000000e+00 1.000000e+00
      outer loop
         vertex 2.265912e+00 5.576200e+00 2.540000e+00
         vertex 3.063614e-01 6.817462e+00 2.540000e+00
         vertex 7.717684e-02 5.962133e+00 2.540000e+00
      endloop
   endfacet
   facet normal 0.000000e+00 0.000000e+00 1.000000e+00
      outer loop
         vertex 2.265912e+00 5.576200e+00 2.540000e+00
         vertex 7.717684e-02 5.962133e+00 2.540000e+00
         vertex 2.222500e+00 5.080000e+00 2.540000e+00
      endloop
   endfacet
   facet normal 0.000000e+00 0.000000e+00 1.000000e+00
      outer loop
         vertex 2.222500e+00 5.080000e+00 2.540000e+00
         vertex 7.717684e-02 5.962133e+00 2.540000e+00
         vertex 0.000000e+00 5.080000e+00 2.540000e+00
      endloop
   endfacet
   facet normal 0.000000e+00 0.000000e+00 1.000000e+00
      outer loop
         vertex 2.222500e+00 5.080000e+00 2.540000e+00
         vertex 0.000000e+00 5.080000e+00 2.540000e+00
         vertex 2.265912e+00 4.583800e+00 2.540000e+00
      endloop
   endfacet
   facet normal 0.000000e+00 0.000000e+00 1.000000e+00
      outer loop
         vertex 2.265912e+00 4.583800e+00 2.540000e+00
         vertex 0.000000e+00 5.080000e+00 2.540000e+00
         vertex 7.717684e-02 4.197867e+00 2.540000e+00
      endloop
   endfacet
   facet normal 0.000000e+00 0.000000e+00 1.000000e+00
      outer loop
         vertex 2.265912e+00 4.583800e+00 2.540000e+00
         vertex 7.717684e-02 4.197867e+00 2.540000e+00
         vertex 2.394828e+00 4.102677e+00 2.540000e+00
      endloop
   endfacet
   facet normal 0.000000e+00 0.000000e+00 1.000000e+00
      outer loop
         vertex 2.394828e+00 4.102677e+00 2.540000e+00
         vertex 7.717684e-02 4.197867e+00 2.540000e+00
         vertex 3.063614e-01 3.342538e+00 2.540000e+00
      endloop
   endfacet
   facet normal 0.000000e+00 0.000000e+00 1.000000e+00
      outer loop
         vertex 2.394828e+00 4.102677e+00 2.540000e+00
         vertex 3.063614e-01 3.342538e+00 2.540000e+00
         vertex 2.605333e+00 3.651250e+00 2.540000e+00
      endloop
   endfacet
   facet normal 0.000000e+00 0.000000e+00 1.000000e+00
      outer loop
         vertex 2.605333e+00 3.651250e+00 2.540000e+00
         vertex 3.063614e-01 3.342538e+00 2.540000e+00
         vertex 6.805910e-01 2.540000e+00 2.540000e+00
      endloop
   endfacet
   facet normal 0.000000e+00 0.000000e+00 1.000000e+00
      outer loop
         vertex 2.605333e+00 3.651250e+00 2.540000e+00
         vertex 6.805910e-01 2.540000e+00 2.540000e+00
         vertex 2.891028e+00 3.243234e+00 2.540000e+00
      endloop
   endfacet
   facet normal 0.000000e+00 0.000000e+00 1.000000e+00
      outer loop
         vertex 2.891028e+00 3.243234e+00 2.540000e+00
         vertex 6.805910e-01 2.540000e+00 2.540000e+00
         vertex 1.188494e+00 1.814639e+00 2.540000e+00
      endloop
   endfacet
   facet normal 0.000000e+00 0.000000e+00 1.000000e+00
      outer loop
         vertex 2.891028e+00 3.243234e+00 2.540000e+00
         vertex 1.188494e+00 1.814639e+00 2.540000e+00
         vertex 3.243234e+00 2.891028e+00 2.540000e+00
      endloop
   endfacet
   facet normal 0.000000e+00 0.000000e+00 1.000000e+00
      outer loop
         vertex 3.243234e+00 2.891028e+00 2.540000e+00
         vertex 1.188494e+00 1.814639e+00 2.540000e+00
         vertex 1.814639e+00 1.188494e+00 2.540000e+00
      endloop
   endfacet
   facet normal 0.000000e+00 0.000000e+00 1.000000e+00
      outer loop
         vertex 3.243234e+00 2.891028e+00 2.540000e+00
         vertex 1.814639e+00 1.188494e+00 2.540000e+00
         vertex 3.651250e+00 2.605333e+00 2.540000e+00
      endloop
   endfacet
   facet normal 0.000000e+00 0.000000e+00 1.000000e+00
      outer loop
         vertex 3.651250e+00 2.605333e+00 2.540000e+00
         vertex 1.814639e+00 1.188494e+00 2.540000e+00
         vertex 2.540000e+00 6.805910e-01 2.540000e+00
      endloop
   endfacet
   facet normal 0.000000e+00 0.000000e+00 1.000000e+00
      outer loop
         vertex 3.651250e+00 2.605333e+00 2.540000e+00
         vertex 2.540000e+00 6.805910e-01 2.540000e+00
         vertex 4.102677e+00 2.394828e+00 2.540000e+00
      endloop
   endfacet
   facet normal 0.000000e+00 0.000000e+00 1.000000e+00
      outer loop
         vertex 4.102677e+00 2.394828e+00 2.540000e+00
         vertex 2.540000e+00 6.805910e-01 2.540000e+00
         vertex 3.342538e+00 3.063614e-01 2.540000e+00
      endloop
   endfacet
   facet normal 0.000000e+00 0.000000e+00 1.000000e+00
      outer loop
         vertex 4.102677e+00 2.394828e+00 2.540000e+00
         vertex 3.342538e+00 3.063614e-01 2.540000e+00
         vertex 4.583800e+00 2.265912e+00 2.540000e+00
      endloop
   endfacet
   facet normal 0.000000e+00 0.000000e+00 1.000000e+00
      outer loop
         vertex 4.583800e+00 2.265912e+00 2.540000e+00
         vertex 3.342538e+00 3.063614e-01 2.540000e+00
         vertex 4.197867e+00 7.717684e-02 2.540000e+00
      endloop
   endfacet
   facet normal 0.000000e+00 0.000000e+00 1.000000e+00
      outer loop
         vertex 4.583800e+00 2.265912e+00 2.540000e+00
         vertex 4.197867e+00 7.717684e-02 2.540000e+00
         vertex 5.080000e+00 2.222500e+00 2.540000e+00
      endloop
   endfacet
   facet normal 0.000000e+00 0.000000e+00 1.000000e+00
      outer loop
         vertex 5.080000e+00 2.222500e+00 2.540000e+00
         vertex 4.197867e+00 7.717684e-02 2.540000e+00
         vertex 5.080000e+00 0.000000e+00 2.540000e+00
      endloop
   endfacet
   facet normal -0.000000e+00 0.000000e+00 1.000000e+00
      outer loop
         vertex 5.080000e+00 2.222500e+00 2.540000e+00
         vertex 5.080000e+00 0.000000e+00 2.540000e+00
         vertex 5.576200e+00 2.265912e+00 2.540000e+00
      endloop
   endfacet
   facet normal 0.000000e+00 0.000000e+00 1.000000e+00
      outer loop
         vertex 5.576200e+00 2.265912e+00 2.540000e+00
         vertex 5.080000e+00 0.000000e+00 2.540000e+00
         vertex 5.962133e+00 7.717684e-02 2.540000e+00
      endloop
   endfacet
   facet normal -0.000000e+00 0.000000e+00 1.000000e+00
      outer loop
         vertex 5.576200e+00 2.265912e+00 2.540000e+00
         vertex 5.962133e+00 7.717684e-02 2.540000e+00
         vertex 6.057323e+00 2.394828e+00 2.540000e+00
      endloop
   endfacet
   facet normal 0.000000e+00 0.000000e+00 1.000000e+00
      outer loop
         vertex 6.057323e+00 2.394828e+00 2.540000e+00
         vertex 5.962133e+00 7.717684e-02 2.540000e+00
         vertex 6.817462e+00 3.063614e-01 2.540000e+00
      endloop
   endfacet
   facet normal -0.000000e+00 0.000000e+00 1.000000e+00
      outer loop
         vertex 6.057323e+00 2.394828e+00 2.540000e+00
         vertex 6.817462e+00 3.063614e-01 2.540000e+00
         vertex 6.508750e+00 2.605333e+00 2.540000e+00
      endloop
   endfacet
   facet normal 0.000000e+00 0.000000e+00 1.000000e+00
      outer loop
         vertex 6.508750e+00 2.605333e+00 2.540000e+00
         vertex 6.817462e+00 3.063614e-01 2.540000e+00
         vertex 7.620000e+00 6.805910e-01 2.540000e+00
      endloop
   endfacet
   facet normal -0.000000e+00 0.000000e+00 1.000000e+00
      outer loop
         vertex 6.508750e+00 2.605333e+00 2.540000e+00
         vertex 7.620000e+00 6.805910e-01 2.540000e+00
         vertex 6.916766e+00 2.891028e+00 2.540000e+00
      endloop
   endfacet
   facet normal 0.000000e+00 0.000000e+00 1.000000e+00
      outer loop
         vertex 6.916766e+00 2.891028e+00 2.540000e+00
         vertex 7.620000e+00 6.805910e-01 2.540000e+00
         vertex 8.345361e+00 1.188494e+00 2.540000e+00
      endloop
   endfacet
   facet normal -0.000000e+00 0.000000e+00 1.000000e+00
      outer loop
         vertex 6.916766e+00 2.891028e+00 2.540000e+00
         vertex 8.345361e+00 1.188494e+00 2.540000e+00
         vertex 7.268972e+00 3.243234e+00 2.540000e+00
      endloop
   endfacet
   facet normal 0.000000e+00 0.000000e+00 1.000000e+00
      outer loop
         vertex 7.268972e+00 3.243234e+00 2.540000e+00
         vertex 8.345361e+00 1.188494e+00 2.540000e+00
         vertex 8.971506e+00 1.814639e+00 2.540000e+00
      endloop
   endfacet
   facet normal -0.000000e+00 0.000000e+00 1.000000e+00
      outer loop
         vertex 7.268972e+00 3.243234e+00 2.540000e+00
         vertex 8.971506e+00 1.814639e+00 2.540000e+00
         vertex 7.554668e+00 3.651250e+00 2.540000e+00
      endloop
   endfacet
   facet normal 0.000000e+00 0.000000e+00 1.000000e+00
      outer loop
         vertex 7.554668e+00 3.651250e+00 2.540000e+00
         vertex 8.971506e+00 1.814639e+00 2.540000e+00
         vertex 9.479409e+00 2.540000e+00 2.540000e+00
      endloop
   endfacet
   facet normal -0.000000e+00 0.000000e+00 1.000000e+00
      outer loop
         vertex 7.554668e+00 3.651250e+00 2.540000e+00
         vertex 9.479409e+00 2.540000e+00 2.540000e+00
         vertex 7.765172e+00 4.102677e+00 2.540000e+00
      endloop
   endfacet
   facet normal 0.000000e+00 0.000000e+00 1.000000e+00
      outer loop
         vertex 7.765172e+00 4.102677e+00 2.540000e+00
         vertex 9.479409e+00 2.540000e+00 2.540000e+00
         vertex 9.853639e+00 3.342538e+00 2.540000e+00
      endloop
   endfacet
   facet normal -0.000000e+00 0.000000e+00 1.000000e+00
      outer loop
         vertex 7.765172e+00 4.102677e+00 2.540000e+00
         vertex 9.853639e+00 3.342538e+00 2.540000e+00
         vertex 7.894088e+00 4.583800e+00 2.540000e+00
      endloop
   endfacet
   facet normal 0.000000e+00 0.000000e+00 1.000000e+00
      outer loop
         vertex 7.894088e+00 4.583800e+00 2.540000e+00
         vertex 9.853639e+00 3.342538e+00 2.540000e+00
         vertex 1.008282e+01 4.197867e+00 2.540000e+00
      endloop
   endfacet
   facet normal -0.000000e+00 0.000000e+00 1.000000e+00
      outer loop
         vertex 7.894088e+00 4.583800e+00 2.540000e+00
         vertex 1.008282e+01 4.197867e+00 2.540000e+00
         vertex 7.937500e+00 5.080000e+00 2.540000e+00
      endloop
   endfacet
   facet normal 0.000000e+00 0.000000e+00 1.000000e+00
      outer loop
         vertex 7.937500e+00 5.080000e+00 2.540000e+00
         vertex 1.008282e+01 4.197867e+00 2.540000e+00
         vertex 1.016000e+01 5.080000e+00 2.540000e+00
      endloop
   endfacet
   facet normal -0.000000e+00 -0.000000e+00 1.000000e+00
      outer loop
         vertex 7.937500e+00 5.080000e+00 2.540000e+00
         vertex 1.016000e+01 5.080000e+00 2.540000e+00
         vertex 7.894088e+00 5.576200e+00 2.540000e+00
      endloop
   endfacet
   facet normal -0.000000e+00 0.000000e+00 1.000000e+00
      outer loop
         vertex 7.894088e+00 5.576200e+00 2.540000e+00
         vertex 1.016000e+01 5.080000e+00 2.540000e+00
         vertex 1.008282e+01 5.962133e+00 2.540000e+00
      endloop
   endfacet
   facet normal 0.000000e+00 -0.000000e+00 1.000000e+00
      outer loop
         vertex 7.894088e+00 5.576200e+00 2.540000e+00
         vertex 1.008282e+01 5.962133e+00 2.540000e+00
         vertex 7.765172e+00 6.057323e+00 2.540000e+00
      endloop
   endfacet
   facet normal -0.000000e+00 0.000000e+00 1.000000e+00
      outer loop
         vertex 7.765172e+00 6.057323e+00 2.540000e+00
         vertex 1.008282e+01 5.962133e+00 2.540000e+00
         vertex 9.853639e+00 6.817462e+00 2.540000e+00
      endloop
   endfacet
endsolid pin