solid Aluminum component
   facet normal 1.000000e+00 0.000000e+00 -0.000000e+00
      outer loop
         vertex 1.143000e+02 6.350000e+00 0.000000e+00
         vertex 1.143000e+02 6.350000e+00 1.270000e+01
         vertex 1.143000e+02 0.000000e+00 0.000000e+00
      endloop
   endfacet
   facet normal 1.000000e+00 0.000000e+00 0.000000e+00
      outer loop
         vertex 1.143000e+02 0.000000e+00 0.000000e+00
         vertex 1.143000e+02 6.350000e+00 1.270000e+01
         vertex 1.143000e+02 0.000000e+00 1.270000e+01
      endloop
   endfacet
   facet normal 0.000000e+00 0.000000e+00 -1.000000e+00
      outer loop
         vertex 0.000000e+00 6.350000e+00 0.000000e+00
         vertex 1.143000e+02 6.350000e+00 0.000000e+00
         vertex 0.000000e+00 0.000000e+00 0.000000e+00
      endloop
   endfacet
   facet normal 0.000000e+00 0.000000e+00 -1.000000e+00
      outer loop
         vertex 0.000000e+00 0.000000e+00 0.000000e+00
         vertex 1.143000e+02 6.350000e+00 0.000000e+00
         vertex 1.143000e+02 0.000000e+00 0.000000e+00
      endloop
   endfacet
   facet normal -1.000000e+00 -0.000000e+00 -0.000000e+00
      outer loop
         vertex 0.000000e+00 6.350000e+00 1.270000e+01
         vertex 0.000000e+00 6.350000e+00 0.000000e+00
         vertex 0.000000e+00 0.000000e+00 1.270000e+01
      endloop
   endfacet
   facet normal -1.000000e+00 0.000000e+00 0.000000e+00
      outer loop
         vertex 0.000000e+00 0.000000e+00 1.270000e+01
         vertex 0.000000e+00 6.350000e+00 0.000000e+00
         vertex 0.000000e+00 0.000000e+00 0.000000e+00
      endloop
   endfacet
   facet normal 0.000000e+00 0.000000e+00 1.000000e+00
      outer loop
         vertex 1.143000e+02 6.350000e+00 1.270000e+01
         vertex 0.000000e+00 6.350000e+00 1.270000e+01
         vertex 1.143000e+02 0.000000e+00 1.270000e+01
      endloop
   endfacet
   facet normal 0.000000e+00 0.000000e+00 1.000000e+00
      outer loop
         vertex 1.143000e+02 0.000000e+00 1.270000e+01
         vertex 0.000000e+00 6.350000e+00 1.270000e+01
         vertex 0.000000e+00 0.000000e+00 1.270000e+01
      endloop
   endfacet
   facet normal 0.000000e+00 1.000000e+00 0.000000e+00
      outer loop
         vertex 0.000000e+00 6.350000e+00 0.000000e+00
         vertex 6.251544e+00 6.350000e+00 5.660834e+00
         vertex 6.430592e+00 6.350000e+00 4.992608e+00
      endloop
   endfacet
   facet normal 0.000000e+00 1.000000e+00 0.000000e+00
      outer loop
         vertex 1.143000e+02 6.350000e+00 1.270000e+01
         vertex 1.080485e+02 6.350000e+00 7.039166e+00
         vertex 1.078694e+02 6.350000e+00 7.707392e+00
      endloop
   endfacet
   facet normal 0.000000e+00 1.000000e+00 0.000000e+00
      outer loop
         vertex 0.000000e+00 6.350000e+00 1.270000e+01
         vertex 9.470832e+00 6.350000e+00 1.025846e+01
         vertex 8.802608e+00 6.350000e+00 1.007941e+01
      endloop
   endfacet
   facet normal 0.000000e+00 1.000000e+00 0.000000e+00
      outer loop
         vertex 0.000000e+00 6.350000e+00 1.270000e+01
         vertex 6.251544e+00 6.350000e+00 7.039166e+00
         vertex 0.000000e+00 6.350000e+00 0.000000e+00
      endloop
   endfacet
   facet normal 0.000000e+00 1.000000e+00 0.000000e+00
      outer loop
         vertex 0.000000e+00 6.350000e+00 0.000000e+00
         vertex 6.251544e+00 6.350000e+00 7.039166e+00
         vertex 6.191250e+00 6.350000e+00 6.350000e+00
      endloop
   endfacet
   facet normal 0.000000e+00 1.000000e+00 0.000000e+00
      outer loop
         vertex 0.000000e+00 6.350000e+00 0.000000e+00
         vertex 6.191250e+00 6.350000e+00 6.350000e+00
         vertex 6.251544e+00 6.350000e+00 5.660834e+00
      endloop
   endfacet
   facet normal 0.000000e+00 1.000000e+00 0.000000e+00
      outer loop
         vertex 8.802608e+00 6.350000e+00 1.007941e+01
         vertex 8.175623e+00 6.350000e+00 9.787038e+00
         vertex 0.000000e+00 6.350000e+00 1.270000e+01
      endloop
   endfacet
   facet normal 0.000000e+00 1.000000e+00 0.000000e+00
      outer loop
         vertex 0.000000e+00 6.350000e+00 1.270000e+01
         vertex 8.175623e+00 6.350000e+00 9.787038e+00
         vertex 7.608935e+00 6.350000e+00 9.390239e+00
      endloop
   endfacet
   facet normal 0.000000e+00 1.000000e+00 0.000000e+00
      outer loop
         vertex 0.000000e+00 6.350000e+00 1.270000e+01
         vertex 7.608935e+00 6.350000e+00 9.390239e+00
         vertex 7.119760e+00 6.350000e+00 8.901063e+00
      endloop
   endfacet
   facet normal 0.000000e+00 1.000000e+00 0.000000e+00
      outer loop
         vertex 7.119760e+00 6.350000e+00 8.901063e+00
         vertex 6.722961e+00 6.350000e+00 8.334375e+00
         vertex 0.000000e+00 6.350000e+00 1.270000e+01
      endloop
   endfacet
   facet normal 0.000000e+00 1.000000e+00 0.000000e+00
      outer loop
         vertex 0.000000e+00 6.350000e+00 1.270000e+01
         vertex 6.722961e+00 6.350000e+00 8.334375e+00
         vertex 6.430592e+00 6.350000e+00 7.707392e+00
      endloop
   endfacet
   facet normal 0.000000e+00 1.000000e+00 0.000000e+00
      outer loop
         vertex 0.000000e+00 6.350000e+00 1.270000e+01
         vertex 6.430592e+00 6.350000e+00 7.707392e+00
         vertex 6.251544e+00 6.350000e+00 7.039166e+00
      endloop
   endfacet
   facet normal -0.000000e+00 1.000000e+00 0.000000e+00
      outer loop
         vertex 1.080485e+02 6.350000e+00 7.039166e+00
         vertex 1.143000e+02 6.350000e+00 1.270000e+01
         vertex 1.081087e+02 6.350000e+00 6.350000e+00
      endloop
   endfacet
   facet normal -0.000000e+00 1.000000e+00 0.000000e+00
      outer loop
         vertex 1.081087e+02 6.350000e+00 6.350000e+00
         vertex 1.143000e+02 6.350000e+00 1.270000e+01
         vertex 1.143000e+02 6.350000e+00 0.000000e+00
      endloop
   endfacet
   facet normal 0.000000e+00 1.000000e+00 0.000000e+00
      outer loop
         vertex 1.081087e+02 6.350000e+00 6.350000e+00
         vertex 1.143000e+02 6.350000e+00 0.000000e+00
         vertex 1.080485e+02 6.350000e+00 5.660834e+00
      endloop
   endfacet
   facet normal 0.000000e+00 1.000000e+00 0.000000e+00
      outer loop
         vertex 1.002315e+02 6.350000e+00 5.660834e+00
         vertex 1.004106e+02 6.350000e+00 4.992608e+00
         vertex 0.000000e+00 6.350000e+00 0.000000e+00
      endloop
   endfacet
   facet normal 0.000000e+00 1.000000e+00 0.000000e+00
      outer loop
         vertex 0.000000e+00 6.350000e+00 0.000000e+00
         vertex 1.004106e+02 6.350000e+00 4.992608e+00
         vertex 1.007030e+02 6.350000e+00 4.365625e+00
      endloop
   endfacet
   facet normal 0.000000e+00 1.000000e+00 -0.000000e+00
      outer loop
         vertex 1.406845e+01 6.350000e+00 7.039166e+00
         vertex 1.388940e+01 6.350000e+00 7.707392e+00
         vertex 1.143000e+02 6.350000e+00 1.270000e+01
      endloop
   endfacet
   facet normal 0.000000e+00 1.000000e+00 0.000000e+00
      outer loop
         vertex 1.143000e+02 6.350000e+00 1.270000e+01
         vertex 1.388940e+01 6.350000e+00 7.707392e+00
         vertex 1.359704e+01 6.350000e+00 8.334375e+00
      endloop
   endfacet
   facet normal 0.000000e+00 1.000000e+00 -0.000000e+00
      outer loop
         vertex 1.359704e+01 6.350000e+00 8.334375e+00
         vertex 1.320024e+01 6.350000e+00 8.901063e+00
         vertex 1.143000e+02 6.350000e+00 1.270000e+01
      endloop
   endfacet
   facet normal 0.000000e+00 1.000000e+00 0.000000e+00
      outer loop
         vertex 1.143000e+02 6.350000e+00 1.270000e+01
         vertex 1.320024e+01 6.350000e+00 8.901063e+00
         vertex 1.271106e+01 6.350000e+00 9.390239e+00
      endloop
   endfacet
   facet normal 0.000000e+00 1.000000e+00 0.000000e+00
      outer loop
         vertex 1.143000e+02 6.350000e+00 1.270000e+01
         vertex 1.271106e+01 6.350000e+00 9.390239e+00
         vertex 1.214438e+01 6.350000e+00 9.787038e+00
      endloop
   endfacet
   facet normal -0.000000e+00 1.000000e+00 0.000000e+00
      outer loop
         vertex 1.071802e+02 6.350000e+00 3.798936e+00
         vertex 1.075770e+02 6.350000e+00 4.365625e+00
         vertex 1.143000e+02 6.350000e+00 0.000000e+00
      endloop
   endfacet
   facet normal 0.000000e+00 1.000000e+00 0.000000e+00
      outer loop
         vertex 1.143000e+02 6.350000e+00 0.000000e+00
         vertex 1.075770e+02 6.350000e+00 4.365625e+00
         vertex 1.078694e+02 6.350000e+00 4.992608e+00
      endloop
   endfacet
   facet normal 0.000000e+00 1.000000e+00 0.000000e+00
      outer loop
         vertex 1.143000e+02 6.350000e+00 0.000000e+00
         vertex 1.078694e+02 6.350000e+00 4.992608e+00
         vertex 1.080485e+02 6.350000e+00 5.660834e+00
      endloop
   endfacet
   facet normal 0.000000e+00 1.000000e+00 -0.000000e+00
      outer loop
         vertex 1.078694e+02 6.350000e+00 7.707392e+00
         vertex 1.075770e+02 6.350000e+00 8.334375e+00
         vertex 1.143000e+02 6.350000e+00 1.270000e+01
      endloop
   endfacet
   facet normal 0.000000e+00 1.000000e+00 0.000000e+00
      outer loop
         vertex 1.143000e+02 6.350000e+00 1.270000e+01
         vertex 1.075770e+02 6.350000e+00 8.334375e+00
         vertex 1.071802e+02 6.350000e+00 8.901063e+00
      endloop
   endfacet
   facet normal 0.000000e+00 1.000000e+00 0.000000e+00
      outer loop
         vertex 1.143000e+02 6.350000e+00 1.270000e+01
         vertex 1.071802e+02 6.350000e+00 8.901063e+00
         vertex 1.066911e+02 6.350000e+00 9.390239e+00
      endloop
   endfacet
   facet normal 0.000000e+00 1.000000e+00 -0.000000e+00
      outer loop
         vertex 1.066911e+02 6.350000e+00 9.390239e+00
         vertex 1.061244e+02 6.350000e+00 9.787038e+00
         vertex 1.143000e+02 6.350000e+00 1.270000e+01
      endloop
   endfacet
   facet normal 0.000000e+00 1.000000e+00 0.000000e+00
      outer loop
         vertex 1.143000e+02 6.350000e+00 1.270000e+01
         vertex 1.061244e+02 6.350000e+00 9.787038e+00
         vertex 1.054974e+02 6.350000e+00 1.007941e+01
      endloop
   endfacet
   facet normal 0.000000e+00 1.000000e+00 0.000000e+00
      outer loop
         vertex 1.143000e+02 6.350000e+00 1.270000e+01
         vertex 1.054974e+02 6.350000e+00 1.007941e+01
         vertex 1.048292e+02 6.350000e+00 1.025846e+01
      endloop
   endfacet
   facet normal 0.000000e+00 1.000000e+00 -0.000000e+00
      outer loop
         vertex 1.048292e+02 6.350000e+00 1.025846e+01
         vertex 1.041400e+02 6.350000e+00 1.031875e+01
         vertex 1.143000e+02 6.350000e+00 1.270000e+01
      endloop
   endfacet
   facet normal 0.000000e+00 1.000000e+00 0.000000e+00
      outer loop
         vertex 1.143000e+02 6.350000e+00 1.270000e+01
         vertex 1.041400e+02 6.350000e+00 1.031875e+01
         vertex 1.034508e+02 6.350000e+00 1.025846e+01
      endloop
   endfacet
   facet normal 0.000000e+00 1.000000e+00 0.000000e+00
      outer loop
         vertex 1.143000e+02 6.350000e+00 1.270000e+01
         vertex 1.034508e+02 6.350000e+00 1.025846e+01
         vertex 1.406845e+01 6.350000e+00 7.039166e+00
      endloop
   endfacet
   facet normal 0.000000e+00 1.000000e+00 0.000000e+00
      outer loop
         vertex 1.406845e+01 6.350000e+00 7.039166e+00
         vertex 1.034508e+02 6.350000e+00 1.025846e+01
         vertex 1.027826e+02 6.350000e+00 1.007941e+01
      endloop
   endfacet
   facet normal 0.000000e+00 1.000000e+00 0.000000e+00
      outer loop
         vertex 1.406845e+01 6.350000e+00 7.039166e+00
         vertex 1.027826e+02 6.350000e+00 1.007941e+01
         vertex 1.021556e+02 6.350000e+00 9.787038e+00
      endloop
   endfacet
   facet normal 0.000000e+00 1.000000e+00 0.000000e+00
      outer loop
         vertex 1.021556e+02 6.350000e+00 9.787038e+00
         vertex 1.015889e+02 6.350000e+00 9.390239e+00
         vertex 1.406845e+01 6.350000e+00 7.039166e+00
      endloop
   endfacet
   facet normal 0.000000e+00 1.000000e+00 0.000000e+00
      outer loop
         vertex 1.406845e+01 6.350000e+00 7.039166e+00
         vertex 1.015889e+02 6.350000e+00 9.390239e+00
         vertex 1.010998e+02 6.350000e+00 8.901063e+00
      endloop
   endfacet
   facet normal 0.000000e+00 1.000000e+00 0.000000e+00
      outer loop
         vertex 1.406845e+01 6.350000e+00 7.039166e+00
         vertex 1.010998e+02 6.350000e+00 8.901063e+00
         vertex 1.007030e+02 6.350000e+00 8.334375e+00
      endloop
   endfacet
   facet normal 0.000000e+00 1.000000e+00 0.000000e+00
      outer loop
         vertex 1.007030e+02 6.350000e+00 8.334375e+00
         vertex 1.004106e+02 6.350000e+00 7.707392e+00
         vertex 1.406845e+01 6.350000e+00 7.039166e+00
      endloop
   endfacet
   facet normal 0.000000e+00 1.000000e+00 0.000000e+00
      outer loop
         vertex 1.406845e+01 6.350000e+00 7.039166e+00
         vertex 1.004106e+02 6.350000e+00 7.707392e+00
         vertex 1.002315e+02 6.350000e+00 7.039166e+00
      endloop
   endfacet
   facet normal -0.000000e+00 1.000000e+00 0.000000e+00
      outer loop
         vertex 1.406845e+01 6.350000e+00 7.039166e+00
         vertex 1.002315e+02 6.350000e+00 7.039166e+00
         vertex 1.412875e+01 6.350000e+00 6.350000e+00
      endloop
   endfacet
   facet normal -0.000000e+00 1.000000e+00 0.000000e+00
      outer loop
         vertex 1.412875e+01 6.350000e+00 6.350000e+00
         vertex 1.002315e+02 6.350000e+00 7.039166e+00
         vertex 1.001712e+02 6.350000e+00 6.350000e+00
      endloop
   endfacet
   facet normal 0.000000e+00 1.000000e+00 0.000000e+00
      outer loop
         vertex 1.412875e+01 6.350000e+00 6.350000e+00
         vertex 1.001712e+02 6.350000e+00 6.350000e+00
         vertex 1.406845e+01 6.350000e+00 5.660834e+00
      endloop
   endfacet
   facet normal 0.000000e+00 1.000000e+00 0.000000e+00
      outer loop
         vertex 1.406845e+01 6.350000e+00 5.660834e+00
         vertex 1.001712e+02 6.350000e+00 6.350000e+00
         vertex 1.002315e+02 6.350000e+00 5.660834e+00
      endloop
   endfacet
   facet normal -0.000000e+00 1.000000e+00 0.000000e+00
      outer loop
         vertex 1.406845e+01 6.350000e+00 5.660834e+00
         vertex 1.002315e+02 6.350000e+00 5.660834e+00
         vertex 1.388940e+01 6.350000e+00 4.992608e+00
      endloop
   endfacet
   facet normal -0.000000e+00 1.000000e+00 0.000000e+00
      outer loop
         vertex 1.388940e+01 6.350000e+00 4.992608e+00
         vertex 1.002315e+02 6.350000e+00 5.660834e+00
         vertex 1.359704e+01 6.350000e+00 4.365625e+00
      endloop
   endfacet
   facet normal 0.000000e+00 1.000000e+00 -0.000000e+00
      outer loop
         vertex 1.214438e+01 6.350000e+00 9.787038e+00
         vertex 1.151739e+01 6.350000e+00 1.007941e+01
         vertex 1.143000e+02 6.350000e+00 1.270000e+01
      endloop
   endfacet
   facet normal 0.000000e+00 1.000000e+00 0.000000e+00
      outer loop
         vertex 1.143000e+02 6.350000e+00 1.270000e+01
         vertex 1.151739e+01 6.350000e+00 1.007941e+01
         vertex 1.084917e+01 6.350000e+00 1.025846e+01
      endloop
   endfacet
   facet normal 0.000000e+00 1.000000e+00 0.000000e+00
      outer loop
         vertex 1.143000e+02 6.350000e+00 1.270000e+01
         vertex 1.084917e+01 6.350000e+00 1.025846e+01
         vertex 0.000000e+00 6.350000e+00 1.270000e+01
      endloop
   endfacet
   facet normal 0.000000e+00 1.000000e+00 0.000000e+00
      outer loop
         vertex 0.000000e+00 6.350000e+00 1.270000e+01
         vertex 1.084917e+01 6.350000e+00 1.025846e+01
         vertex 1.016000e+01 6.350000e+00 1.031875e+01
      endloop
   endfacet
   facet normal 0.000000e+00 1.000000e+00 0.000000e+00
      outer loop
         vertex 0.000000e+00 6.350000e+00 1.270000e+01
         vertex 1.016000e+01 6.350000e+00 1.031875e+01
         vertex 9.470832e+00 6.350000e+00 1.025846e+01
      endloop
   endfacet
   facet normal 0.000000e+00 1.000000e+00 0.000000e+00
      outer loop
         vertex 1.007030e+02 6.350000e+00 4.365625e+00
         vertex 1.010998e+02 6.350000e+00 3.798936e+00
         vertex 0.000000e+00 6.350000e+00 0.000000e+00
      endloop
   endfacet
   facet normal 0.000000e+00 1.000000e+00 0.000000e+00
      outer loop
         vertex 0.000000e+00 6.350000e+00 0.000000e+00
         vertex 1.010998e+02 6.350000e+00 3.798936e+00
         vertex 1.015889e+02 6.350000e+00 3.309761e+00
      endloop
   endfacet
   facet normal 0.000000e+00 1.000000e+00 0.000000e+00
      outer loop
         vertex 0.000000e+00 6.350000e+00 0.000000e+00
         vertex 1.015889e+02 6.350000e+00 3.309761e+00
         vertex 1.021556e+02 6.350000e+00 2.912962e+00
      endloop
   endfacet
   facet normal 0.000000e+00 1.000000e+00 0.000000e+00
      outer loop
         vertex 6.430592e+00 6.350000e+00 4.992608e+00
         vertex 6.722961e+00 6.350000e+00 4.365625e+00
         vertex 0.000000e+00 6.350000e+00 0.000000e+00
      endloop
   endfacet
   facet normal 0.000000e+00 1.000000e+00 0.000000e+00
      outer loop
         vertex 0.000000e+00 6.350000e+00 0.000000e+00
         vertex 6.722961e+00 6.350000e+00 4.365625e+00
         vertex 7.119760e+00 6.350000e+00 3.798936e+00
      endloop
   endfacet
   facet normal 0.000000e+00 1.000000e+00 0.000000e+00
      outer loop
         vertex 0.000000e+00 6.350000e+00 0.000000e+00
         vertex 7.119760e+00 6.350000e+00 3.798936e+00
         vertex 7.608935e+00 6.350000e+00 3.309761e+00
      endloop
   endfacet
   facet normal 0.000000e+00 1.000000e+00 0.000000e+00
      outer loop
         vertex 1.021556e+02 6.350000e+00 2.912962e+00
         vertex 1.027826e+02 6.350000e+00 2.620595e+00
         vertex 0.000000e+00 6.350000e+00 0.000000e+00
      endloop
   endfacet
   facet normal 0.000000e+00 1.000000e+00 0.000000e+00
      outer loop
         vertex 0.000000e+00 6.350000e+00 0.000000e+00
         vertex 1.027826e+02 6.350000e+00 2.620595e+00
         vertex 1.034508e+02 6.350000e+00 2.441544e+00
      endloop
   endfacet
   facet normal 0.000000e+00 1.000000e+00 0.000000e+00
      outer loop
         vertex 0.000000e+00 6.350000e+00 0.000000e+00
         vertex 1.034508e+02 6.350000e+00 2.441544e+00
         vertex 1.143000e+02 6.350000e+00 0.000000e+00
      endloop
   endfacet
   facet normal 0.000000e+00 1.000000e+00 0.000000e+00
      outer loop
         vertex 1.034508e+02 6.350000e+00 2.441544e+00
         vertex 1.041400e+02 6.350000e+00 2.381250e+00
         vertex 1.143000e+02 6.350000e+00 0.000000e+00
      endloop
   endfacet
   facet normal 0.000000e+00 1.000000e+00 0.000000e+00
      outer loop
         vertex 1.143000e+02 6.350000e+00 0.000000e+00
         vertex 1.041400e+02 6.350000e+00 2.381250e+00
         vertex 1.048292e+02 6.350000e+00 2.441544e+00
      endloop
   endfacet
   facet normal 0.000000e+00 1.000000e+00 0.000000e+00
      outer loop
         vertex 1.143000e+02 6.350000e+00 0.000000e+00
         vertex 1.048292e+02 6.350000e+00 2.441544e+00
         vertex 1.054974e+02 6.350000e+00 2.620595e+00
      endloop
   endfacet
   facet normal 0.000000e+00 1.000000e+00 0.000000e+00
      outer loop
         vertex 7.608935e+00 6.350000e+00 3.309761e+00
         vertex 8.175623e+00 6.350000e+00 2.912962e+00
         vertex 0.000000e+00 6.350000e+00 0.000000e+00
      endloop
   endfacet
   facet normal 0.000000e+00 1.000000e+00 0.000000e+00
      outer loop
         vertex 0.000000e+00 6.350000e+00 0.000000e+00
         vertex 8.175623e+00 6.350000e+00 2.912962e+00
         vertex 8.802608e+00 6.350000e+00 2.620595e+00
      endloop
   endfacet
   facet normal 0.000000e+00 1.000000e+00 0.000000e+00
      outer loop
         vertex 0.000000e+00 6.350000e+00 0.000000e+00
         vertex 8.802608e+00 6.350000e+00 2.620595e+00
         vertex 9.470832e+00 6.350000e+00 2.441544e+00
      endloop
   endfacet
   facet normal -0.000000e+00 1.000000e+00 0.000000e+00
      outer loop
         vertex 1.054974e+02 6.350000e+00 2.620595e+00
         vertex 1.061244e+02 6.350000e+00 2.912962e+00
         vertex 1.143000e+02 6.350000e+00 0.000000e+00
      endloop
   endfacet
   facet normal 0.000000e+00 1.000000e+00 0.000000e+00
      outer loop
         vertex 1.143000e+02 6.350000e+00 0.000000e+00
         vertex 1.061244e+02 6.350000e+00 2.912962e+00
         vertex 1.066911e+02 6.350000e+00 3.309761e+00
      endloop
   endfacet
   facet normal 0.000000e+00 1.000000e+00 0.000000e+00
      outer loop
         vertex 1.143000e+02 6.350000e+00 0.000000e+00
         vertex 1.066911e+02 6.350000e+00 3.309761e+00
         vertex 1.071802e+02 6.350000e+00 3.798936e+00
      endloop
   endfacet
   facet normal 0.000000e+00 1.000000e+00 0.000000e+00
      outer loop
         vertex 1.214438e+01 6.350000e+00 2.912962e+00
         vertex 1.271106e+01 6.350000e+00 3.309761e+00
         vertex 1.002315e+02 6.350000e+00 5.660834e+00
      endloop
   endfacet
   facet normal 0.000000e+00 1.000000e+00 0.000000e+00
      outer loop
         vertex 1.002315e+02 6.350000e+00 5.660834e+00
         vertex 1.271106e+01 6.350000e+00 3.309761e+00
         vertex 1.320024e+01 6.350000e+00 3.798936e+00
      endloop
   endfacet
   facet normal 0.000000e+00 1.000000e+00 0.000000e+00
      outer loop
         vertex 1.002315e+02 6.350000e+00 5.660834e+00
         vertex 1.320024e+01 6.350000e+00 3.798936e+00
         vertex 1.359704e+01 6.350000e+00 4.365625e+00
      endloop
   endfacet
   facet normal 0.000000e+00 1.000000e+00 0.000000e+00
      outer loop
         vertex 9.470832e+00 6.350000e+00 2.441544e+00
         vertex 1.016000e+01 6.350000e+00 2.381250e+00
         vertex 0.000000e+00 6.350000e+00 0.000000e+00
      endloop
   endfacet
   facet normal 0.000000e+00 1.000000e+00 0.000000e+00
      outer loop
         vertex 0.000000e+00 6.350000e+00 0.000000e+00
         vertex 1.016000e+01 6.350000e+00 2.381250e+00
         vertex 1.084917e+01 6.350000e+00 2.441544e+00
      endloop
   endfacet
   facet normal 0.000000e+00 1.000000e+00 0.000000e+00
      outer loop
         vertex 0.000000e+00 6.350000e+00 0.000000e+00
         vertex 1.084917e+01 6.350000e+00 2.441544e+00
         vertex 1.002315e+02 6.350000e+00 5.660834e+00
      endloop
   endfacet
   facet normal 0.000000e+00 1.000000e+00 0.000000e+00
      outer loop
         vertex 1.002315e+02 6.350000e+00 5.660834e+00
         vertex 1.084917e+01 6.350000e+00 2.441544e+00
         vertex 1.151739e+01 6.350000e+00 2.620595e+00
      endloop
   endfacet
   facet normal 0.000000e+00 1.000000e+00 0.000000e+00
      outer loop
         vertex 1.002315e+02 6.350000e+00 5.660834e+00
         vertex 1.151739e+01 6.350000e+00 2.620595e+00
         vertex 1.214438e+01 6.350000e+00 2.912962e+00
      endloop
   endfacet
   facet normal -0.000000e+00 -1.000000e+00 0.000000e+00
      outer loop
         vertex 9.470832e+00 0.000000e+00 2.441544e+00
         vertex 8.802608e+00 0.000000e+00 2.620595e+00
         vertex 0.000000e+00 0.000000e+00 0.000000e+00
      endloop
   endfacet
   facet normal 0.000000e+00 -1.000000e+00 0.000000e+00
      outer loop
         vertex 0.000000e+00 0.000000e+00 0.000000e+00
         vertex 8.802608e+00 0.000000e+00 2.620595e+00
         vertex 8.175623e+00 0.000000e+00 2.912962e+00
      endloop
   endfacet
   facet normal 0.000000e+00 -1.000000e+00 0.000000e+00
      outer loop
         vertex 0.000000e+00 0.000000e+00 0.000000e+00
         vertex 8.175623e+00 0.000000e+00 2.912962e+00
         vertex 7.608935e+00 0.000000e+00 3.309761e+00
      endloop
   endfacet
   facet normal 0.000000e+00 -1.000000e+00 -0.000000e+00
      outer loop
         vertex 1.010998e+02 0.000000e+00 3.798936e+00
         vertex 0.000000e+00 0.000000e+00 0.000000e+00
         vertex 1.015889e+02 0.000000e+00 3.309761e+00
      endloop
   endfacet
   facet normal 0.000000e+00 -1.000000e+00 -0.000000e+00
      outer loop
         vertex 1.015889e+02 0.000000e+00 3.309761e+00
         vertex 0.000000e+00 0.000000e+00 0.000000e+00
         vertex 1.021556e+02 0.000000e+00 2.912962e+00
      endloop
   endfacet
   facet normal 0.000000e+00 -1.000000e+00 0.000000e+00
      outer loop
         vertex 1.388940e+01 0.000000e+00 7.707392e+00
         vertex 1.406845e+01 0.000000e+00 7.039166e+00
         vertex 1.143000e+02 0.000000e+00 1.270000e+01
      endloop
   endfacet
   facet normal 0.000000e+00 -1.000000e+00 0.000000e+00
      outer loop
         vertex 1.143000e+02 0.000000e+00 0.000000e+00
         vertex 1.034508e+02 0.000000e+00 2.441544e+00
         vertex 0.000000e+00 0.000000e+00 0.000000e+00
      endloop
   endfacet
   facet normal 0.000000e+00 -1.000000e+00 0.000000e+00
      outer loop
         vertex 0.000000e+00 0.000000e+00 0.000000e+00
         vertex 1.034508e+02 0.000000e+00 2.441544e+00
         vertex 1.027826e+02 0.000000e+00 2.620595e+00
      endloop
   endfacet
   facet normal 0.000000e+00 -1.000000e+00 0.000000e+00
      outer loop
         vertex 0.000000e+00 0.000000e+00 0.000000e+00
         vertex 1.027826e+02 0.000000e+00 2.620595e+00
         vertex 1.021556e+02 0.000000e+00 2.912962e+00
      endloop
   endfacet
   facet normal 0.000000e+00 -1.000000e+00 0.000000e+00
      outer loop
         vertex 1.080485e+02 0.000000e+00 5.660834e+00
         vertex 1.143000e+02 0.000000e+00 0.000000e+00
         vertex 1.081087e+02 0.000000e+00 6.350000e+00
      endloop
   endfacet
   facet normal 0.000000e+00 -1.000000e+00 0.000000e+00
      outer loop
         vertex 1.081087e+02 0.000000e+00 6.350000e+00
         vertex 1.143000e+02 0.000000e+00 0.000000e+00
         vertex 1.143000e+02 0.000000e+00 1.270000e+01
      endloop
   endfacet
   facet normal 0.000000e+00 -1.000000e+00 0.000000e+00
      outer loop
         vertex 1.081087e+02 0.000000e+00 6.350000e+00
         vertex 1.143000e+02 0.000000e+00 1.270000e+01
         vertex 1.080485e+02 0.000000e+00 7.039166e+00
      endloop
   endfacet
   facet normal -0.000000e+00 -1.000000e+00 0.000000e+00
      outer loop
         vertex 7.608935e+00 0.000000e+00 3.309761e+00
         vertex 7.119760e+00 0.000000e+00 3.798936e+00
         vertex 0.000000e+00 0.000000e+00 0.000000e+00
      endloop
   endfacet
   facet normal 0.000000e+00 -1.000000e+00 0.000000e+00
      outer loop
         vertex 0.000000e+00 0.000000e+00 0.000000e+00
         vertex 7.119760e+00 0.000000e+00 3.798936e+00
         vertex 6.722961e+00 0.000000e+00 4.365625e+00
      endloop
   endfacet
   facet normal 0.000000e+00 -1.000000e+00 0.000000e+00
      outer loop
         vertex 0.000000e+00 0.000000e+00 0.000000e+00
         vertex 6.722961e+00 0.000000e+00 4.365625e+00
         vertex 6.430592e+00 0.000000e+00 4.992608e+00
      endloop
   endfacet
   facet normal 0.000000e+00 -1.000000e+00 -0.000000e+00
      outer loop
         vertex 1.080485e+02 0.000000e+00 5.660834e+00
         vertex 1.078694e+02 0.000000e+00 4.992608e+00
         vertex 1.143000e+02 0.000000e+00 0.000000e+00
      endloop
   endfacet
   facet normal 0.000000e+00 -1.000000e+00 0.000000e+00
      outer loop
         vertex 1.143000e+02 0.000000e+00 0.000000e+00
         vertex 1.078694e+02 0.000000e+00 4.992608e+00
         vertex 1.075770e+02 0.000000e+00 4.365625e+00
      endloop
   endfacet
   facet normal 0.000000e+00 -1.000000e+00 0.000000e+00
      outer loop
         vertex 1.143000e+02 0.000000e+00 0.000000e+00
         vertex 1.075770e+02 0.000000e+00 4.365625e+00
         vertex 1.071802e+02 0.000000e+00 3.798936e+00
      endloop
   endfacet
   facet normal -0.000000e+00 -1.000000e+00 0.000000e+00
      outer loop
         vertex 6.430592e+00 0.000000e+00 4.992608e+00
         vertex 6.251544e+00 0.000000e+00 5.660834e+00
         vertex 0.000000e+00 0.000000e+00 0.000000e+00
      endloop
   endfacet
   facet normal 0.000000e+00 -1.000000e+00 0.000000e+00
      outer loop
         vertex 0.000000e+00 0.000000e+00 0.000000e+00
         vertex 6.251544e+00 0.000000e+00 5.660834e+00
         vertex 6.191250e+00 0.000000e+00 6.350000e+00
      endloop
   endfacet
   facet normal 0.000000e+00 -1.000000e+00 0.000000e+00
      outer loop
         vertex 0.000000e+00 0.000000e+00 0.000000e+00
         vertex 6.191250e+00 0.000000e+00 6.350000e+00
         vertex 0.000000e+00 0.000000e+00 1.270000e+01
      endloop
   endfacet
   facet normal 0.000000e+00 -1.000000e+00 0.000000e+00
      outer loop
         vertex 0.000000e+00 0.000000e+00 1.270000e+01
         vertex 6.191250e+00 0.000000e+00 6.350000e+00
         vertex 6.251544e+00 0.000000e+00 7.039166e+00
      endloop
   endfacet
   facet normal 0.000000e+00 -1.000000e+00 0.000000e+00
      outer loop
         vertex 0.000000e+00 0.000000e+00 1.270000e+01
         vertex 6.251544e+00 0.000000e+00 7.039166e+00
         vertex 6.430592e+00 0.000000e+00 7.707392e+00
      endloop
   endfacet
   facet normal -0.000000e+00 -1.000000e+00 -0.000000e+00
      outer loop
         vertex 1.007030e+02 0.000000e+00 4.365625e+00
         vertex 1.406845e+01 0.000000e+00 5.660834e+00
         vertex 1.010998e+02 0.000000e+00 3.798936e+00
      endloop
   endfacet
   facet normal 0.000000e+00 -1.000000e+00 0.000000e+00
      outer loop
         vertex 1.010998e+02 0.000000e+00 3.798936e+00
         vertex 1.406845e+01 0.000000e+00 5.660834e+00
         vertex 1.388940e+01 0.000000e+00 4.992608e+00
      endloop
   endfacet
   facet normal 0.000000e+00 -1.000000e+00 0.000000e+00
      outer loop
         vertex 1.010998e+02 0.000000e+00 3.798936e+00
         vertex 1.388940e+01 0.000000e+00 4.992608e+00
         vertex 1.359704e+01 0.000000e+00 4.365625e+00
      endloop
   endfacet
   facet normal 0.000000e+00 -1.000000e+00 0.000000e+00
      outer loop
         vertex 1.214438e+01 0.000000e+00 9.787038e+00
         vertex 1.271106e+01 0.000000e+00 9.390239e+00
         vertex 1.143000e+02 0.000000e+00 1.270000e+01
      endloop
   endfacet
   facet normal 0.000000e+00 -1.000000e+00 0.000000e+00
      outer loop
         vertex 1.007030e+02 0.000000e+00 4.365625e+00
         vertex 1.004106e+02 0.000000e+00 4.992608e+00
         vertex 1.406845e+01 0.000000e+00 5.660834e+00
      endloop
   endfacet
   facet normal 0.000000e+00 -1.000000e+00 0.000000e+00
      outer loop
         vertex 1.406845e+01 0.000000e+00 5.660834e+00
         vertex 1.004106e+02 0.000000e+00 4.992608e+00
         vertex 1.002315e+02 0.000000e+00 5.660834e+00
      endloop
   endfacet
   facet normal 0.000000e+00 -1.000000e+00 0.000000e+00
      outer loop
         vertex 1.406845e+01 0.000000e+00 5.660834e+00
         vertex 1.002315e+02 0.000000e+00 5.660834e+00
         vertex 1.412875e+01 0.000000e+00 6.350000e+00
      endloop
   endfacet
   facet normal 0.000000e+00 -1.000000e+00 0.000000e+00
      outer loop
         vertex 1.412875e+01 0.000000e+00 6.350000e+00
         vertex 1.002315e+02 0.000000e+00 5.660834e+00
         vertex 1.001712e+02 0.000000e+00 6.350000e+00
      endloop
   endfacet
   facet normal 0.000000e+00 -1.000000e+00 0.000000e+00
      outer loop
         vertex 1.412875e+01 0.000000e+00 6.350000e+00
         vertex 1.001712e+02 0.000000e+00 6.350000e+00
         vertex 1.406845e+01 0.000000e+00 7.039166e+00
      endloop
   endfacet
   facet normal 0.000000e+00 -1.000000e+00 -0.000000e+00
      outer loop
         vertex 1.071802e+02 0.000000e+00 3.798936e+00
         vertex 1.066911e+02 0.000000e+00 3.309761e+00
         vertex 1.143000e+02 0.000000e+00 0.000000e+00
      endloop
   endfacet
   facet normal 0.000000e+00 -1.000000e+00 0.000000e+00
      outer loop
         vertex 1.143000e+02 0.000000e+00 0.000000e+00
         vertex 1.066911e+02 0.000000e+00 3.309761e+00
         vertex 1.061244e+02 0.000000e+00 2.912962e+00
      endloop
   endfacet
   facet normal 0.000000e+00 -1.000000e+00 0.000000e+00
      outer loop
         vertex 1.143000e+02 0.000000e+00 0.000000e+00
         vertex 1.061244e+02 0.000000e+00 2.912962e+00
         vertex 1.054974e+02 0.000000e+00 2.620595e+00
      endloop
   endfacet
   facet normal 0.000000e+00 -1.000000e+00 0.000000e+00
      outer loop
         vertex 6.430592e+00 0.000000e+00 7.707392e+00
         vertex 6.722961e+00 0.000000e+00 8.334375e+00
         vertex 0.000000e+00 0.000000e+00 1.270000e+01
      endloop
   endfacet
   facet normal 0.000000e+00 -1.000000e+00 0.000000e+00
      outer loop
         vertex 0.000000e+00 0.000000e+00 1.270000e+01
         vertex 6.722961e+00 0.000000e+00 8.334375e+00
         vertex 7.119760e+00 0.000000e+00 8.901063e+00
      endloop
   endfacet
   facet normal 0.000000e+00 -1.000000e+00 0.000000e+00
      outer loop
         vertex 0.000000e+00 0.000000e+00 1.270000e+01
         vertex 7.119760e+00 0.000000e+00 8.901063e+00
         vertex 7.608935e+00 0.000000e+00 9.390239e+00
      endloop
   endfacet
   facet normal 0.000000e+00 -1.000000e+00 -0.000000e+00
      outer loop
         vertex 1.359704e+01 0.000000e+00 4.365625e+00
         vertex 1.320024e+01 0.000000e+00 3.798936e+00
         vertex 1.010998e+02 0.000000e+00 3.798936e+00
      endloop
   endfacet
   facet normal -0.000000e+00 -1.000000e+00 0.000000e+00
      outer loop
         vertex 1.010998e+02 0.000000e+00 3.798936e+00
         vertex 1.320024e+01 0.000000e+00 3.798936e+00
         vertex 1.271106e+01 0.000000e+00 3.309761e+00
      endloop
   endfacet
   facet normal 0.000000e+00 -1.000000e+00 0.000000e+00
      outer loop
         vertex 1.010998e+02 0.000000e+00 3.798936e+00
         vertex 1.271106e+01 0.000000e+00 3.309761e+00
         vertex 1.214438e+01 0.000000e+00 2.912962e+00
      endloop
   endfacet
   facet normal 0.000000e+00 -1.000000e+00 -0.000000e+00
      outer loop
         vertex 1.054974e+02 0.000000e+00 2.620595e+00
         vertex 1.048292e+02 0.000000e+00 2.441544e+00
         vertex 1.143000e+02 0.000000e+00 0.000000e+00
      endloop
   endfacet
   facet normal 0.000000e+00 -1.000000e+00 0.000000e+00
      outer loop
         vertex 1.143000e+02 0.000000e+00 0.000000e+00
         vertex 1.048292e+02 0.000000e+00 2.441544e+00
         vertex 1.041400e+02 0.000000e+00 2.381250e+00
      endloop
   endfacet
   facet normal 0.000000e+00 -1.000000e+00 0.000000e+00
      outer loop
         vertex 1.143000e+02 0.000000e+00 0.000000e+00
         vertex 1.041400e+02 0.000000e+00 2.381250e+00
         vertex 1.034508e+02 0.000000e+00 2.441544e+00
      endloop
   endfacet
   facet normal 0.000000e+00 -1.000000e+00 0.000000e+00
      outer loop
         vertex 1.271106e+01 0.000000e+00 9.390239e+00
         vertex 1.320024e+01 0.000000e+00 8.901063e+00
         vertex 1.143000e+02 0.000000e+00 1.270000e+01
      endloop
   endfacet
   facet normal 0.000000e+00 -1.000000e+00 0.000000e+00
      outer loop
         vertex 1.143000e+02 0.000000e+00 1.270000e+01
         vertex 1.320024e+01 0.000000e+00 8.901063e+00
         vertex 1.359704e+01 0.000000e+00 8.334375e+00
      endloop
   endfacet
   facet normal 0.000000e+00 -1.000000e+00 0.000000e+00
      outer loop
         vertex 1.143000e+02 0.000000e+00 1.270000e+01
         vertex 1.359704e+01 0.000000e+00 8.334375e+00
         vertex 1.388940e+01 0.000000e+00 7.707392e+00
      endloop
   endfacet
   facet normal 0.000000e+00 -1.000000e+00 0.000000e+00
      outer loop
         vertex 1.001712e+02 0.000000e+00 6.350000e+00
         vertex 1.002315e+02 0.000000e+00 7.039166e+00
         vertex 1.406845e+01 0.000000e+00 7.039166e+00
      endloop
   endfacet
   facet normal 0.000000e+00 -1.000000e+00 0.000000e+00
      outer loop
         vertex 1.406845e+01 0.000000e+00 7.039166e+00
         vertex 1.002315e+02 0.000000e+00 7.039166e+00
         vertex 1.004106e+02 0.000000e+00 7.707392e+00
      endloop
   endfacet
   facet normal 0.000000e+00 -1.000000e+00 0.000000e+00
      outer loop
         vertex 1.406845e+01 0.000000e+00 7.039166e+00
         vertex 1.004106e+02 0.000000e+00 7.707392e+00
         vertex 1.007030e+02 0.000000e+00 8.334375e+00
      endloop
   endfacet
   facet normal 0.000000e+00 -1.000000e+00 -0.000000e+00
      outer loop
         vertex 1.214438e+01 0.000000e+00 2.912962e+00
         vertex 1.151739e+01 0.000000e+00 2.620595e+00
         vertex 1.010998e+02 0.000000e+00 3.798936e+00
      endloop
   endfacet
   facet normal 0.000000e+00 -1.000000e+00 0.000000e+00
      outer loop
         vertex 1.010998e+02 0.000000e+00 3.798936e+00
         vertex 1.151739e+01 0.000000e+00 2.620595e+00
         vertex 1.084917e+01 0.000000e+00 2.441544e+00
      endloop
   endfacet
   facet normal 0.000000e+00 -1.000000e+00 0.000000e+00
      outer loop
         vertex 1.010998e+02 0.000000e+00 3.798936e+00
         vertex 1.084917e+01 0.000000e+00 2.441544e+00
         vertex 0.000000e+00 0.000000e+00 0.000000e+00
      endloop
   endfacet
   facet normal 0.000000e+00 -1.000000e+00 0.000000e+00
      outer loop
         vertex 0.000000e+00 0.000000e+00 0.000000e+00
         vertex 1.084917e+01 0.000000e+00 2.441544e+00
         vertex 1.016000e+01 0.000000e+00 2.381250e+00
      endloop
   endfacet
   facet normal 0.000000e+00 -1.000000e+00 0.000000e+00
      outer loop
         vertex 0.000000e+00 0.000000e+00 0.000000e+00
         vertex 1.016000e+01 0.000000e+00 2.381250e+00
         vertex 9.470832e+00 0.000000e+00 2.441544e+00
      endloop
   endfacet
   facet normal 0.000000e+00 -1.000000e+00 0.000000e+00
      outer loop
         vertex 7.608935e+00 0.000000e+00 9.390239e+00
         vertex 8.175623e+00 0.000000e+00 9.787038e+00
         vertex 0.000000e+00 0.000000e+00 1.270000e+01
      endloop
   endfacet
   facet normal 0.000000e+00 -1.000000e+00 0.000000e+00
      outer loop
         vertex 0.000000e+00 0.000000e+00 1.270000e+01
         vertex 8.175623e+00 0.000000e+00 9.787038e+00
         vertex 8.802608e+00 0.000000e+00 1.007941e+01
      endloop
   endfacet
   facet normal 0.000000e+00 -1.000000e+00 0.000000e+00
      outer loop
         vertex 0.000000e+00 0.000000e+00 1.270000e+01
         vertex 8.802608e+00 0.000000e+00 1.007941e+01
         vertex 9.470832e+00 0.000000e+00 1.025846e+01
      endloop
   endfacet
   facet normal 0.000000e+00 -1.000000e+00 0.000000e+00
      outer loop
         vertex 1.071802e+02 0.000000e+00 8.901063e+00
         vertex 1.075770e+02 0.000000e+00 8.334375e+00
         vertex 1.143000e+02 0.000000e+00 1.270000e+01
      endloop
   endfacet
   facet normal 0.000000e+00 -1.000000e+00 0.000000e+00
      outer loop
         vertex 1.143000e+02 0.000000e+00 1.270000e+01
         vertex 1.075770e+02 0.000000e+00 8.334375e+00
         vertex 1.078694e+02 0.000000e+00 7.707392e+00
      endloop
   endfacet
   facet normal 0.000000e+00 -1.000000e+00 0.000000e+00
      outer loop
         vertex 1.143000e+02 0.000000e+00 1.270000e+01
         vertex 1.078694e+02 0.000000e+00 7.707392e+00
         vertex 1.080485e+02 0.000000e+00 7.039166e+00
      endloop
   endfacet
   facet normal -0.000000e+00 -1.000000e+00 0.000000e+00
      outer loop
         vertex 1.007030e+02 0.000000e+00 8.334375e+00
         vertex 1.010998e+02 0.000000e+00 8.901063e+00
         vertex 1.406845e+01 0.000000e+00 7.039166e+00
      endloop
   endfacet
   facet normal 0.000000e+00 -1.000000e+00 0.000000e+00
      outer loop
         vertex 1.406845e+01 0.000000e+00 7.039166e+00
         vertex 1.010998e+02 0.000000e+00 8.901063e+00
         vertex 1.015889e+02 0.000000e+00 9.390239e+00
      endloop
   endfacet
   facet normal 0.000000e+00 -1.000000e+00 0.000000e+00
      outer loop
         vertex 1.406845e+01 0.000000e+00 7.039166e+00
         vertex 1.015889e+02 0.000000e+00 9.390239e+00
         vertex 1.021556e+02 0.000000e+00 9.787038e+00
      endloop
   endfacet
   facet normal 0.000000e+00 -1.000000e+00 0.000000e+00
      outer loop
         vertex 1.048292e+02 0.000000e+00 1.025846e+01
         vertex 1.054974e+02 0.000000e+00 1.007941e+01
         vertex 1.143000e+02 0.000000e+00 1.270000e+01
      endloop
   endfacet
   facet normal 0.000000e+00 -1.000000e+00 0.000000e+00
      outer loop
         vertex 9.470832e+00 0.000000e+00 1.025846e+01
         vertex 1.016000e+01 0.000000e+00 1.031875e+01
         vertex 0.000000e+00 0.000000e+00 1.270000e+01
      endloop
   endfacet
   facet normal 0.000000e+00 -1.000000e+00 0.000000e+00
      outer loop
         vertex 0.000000e+00 0.000000e+00 1.270000e+01
         vertex 1.016000e+01 0.000000e+00 1.031875e+01
         vertex 1.084917e+01 0.000000e+00 1.025846e+01
      endloop
   endfacet
   facet normal 0.000000e+00 -1.000000e+00 0.000000e+00
      outer loop
         vertex 0.000000e+00 0.000000e+00 1.270000e+01
         vertex 1.084917e+01 0.000000e+00 1.025846e+01
         vertex 1.143000e+02 0.000000e+00 1.270000e+01
      endloop
   endfacet
   facet normal 0.000000e+00 -1.000000e+00 0.000000e+00
      outer loop
         vertex 1.143000e+02 0.000000e+00 1.270000e+01
         vertex 1.084917e+01 0.000000e+00 1.025846e+01
         vertex 1.151739e+01 0.000000e+00 1.007941e+01
      endloop
   endfacet
   facet normal 0.000000e+00 -1.000000e+00 0.000000e+00
      outer loop
         vertex 1.143000e+02 0.000000e+00 1.270000e+01
         vertex 1.151739e+01 0.000000e+00 1.007941e+01
         vertex 1.214438e+01 0.000000e+00 9.787038e+00
      endloop
   endfacet
   facet normal -0.000000e+00 -1.000000e+00 0.000000e+00
      outer loop
         vertex 1.021556e+02 0.000000e+00 9.787038e+00
         vertex 1.027826e+02 0.000000e+00 1.007941e+01
         vertex 1.406845e+01 0.000000e+00 7.039166e+00
      endloop
   endfacet
   facet normal 0.000000e+00 -1.000000e+00 0.000000e+00
      outer loop
         vertex 1.406845e+01 0.000000e+00 7.039166e+00
         vertex 1.027826e+02 0.000000e+00 1.007941e+01
         vertex 1.034508e+02 0.000000e+00 1.025846e+01
      endloop
   endfacet
   facet normal 0.000000e+00 -1.000000e+00 0.000000e+00
      outer loop
         vertex 1.406845e+01 0.000000e+00 7.039166e+00
         vertex 1.034508e+02 0.000000e+00 1.025846e+01
         vertex 1.143000e+02 0.000000e+00 1.270000e+01
      endloop
   endfacet
   facet normal 0.000000e+00 -1.000000e+00 0.000000e+00
      outer loop
         vertex 1.143000e+02 0.000000e+00 1.270000e+01
         vertex 1.034508e+02 0.000000e+00 1.025846e+01
         vertex 1.041400e+02 0.000000e+00 1.031875e+01
      endloop
   endfacet
   facet normal 0.000000e+00 -1.000000e+00 0.000000e+00
      outer loop
         vertex 1.143000e+02 0.000000e+00 1.270000e+01
         vertex 1.041400e+02 0.000000e+00 1.031875e+01
         vertex 1.048292e+02 0.000000e+00 1.025846e+01
      endloop
   endfacet
   facet normal 0.000000e+00 -1.000000e+00 0.000000e+00
      outer loop
         vertex 1.054974e+02 0.000000e+00 1.007941e+01
         vertex 1.061244e+02 0.000000e+00 9.787038e+00
         vertex 1.143000e+02 0.000000e+00 1.270000e+01
      endloop
   endfacet
   facet normal 0.000000e+00 -1.000000e+00 0.000000e+00
      outer loop
         vertex 1.143000e+02 0.000000e+00 1.270000e+01
         vertex 1.061244e+02 0.000000e+00 9.787038e+00
         vertex 1.066911e+02 0.000000e+00 9.390239e+00
      endloop
   endfacet
   facet normal 0.000000e+00 -1.000000e+00 0.000000e+00
      outer loop
         vertex 1.143000e+02 0.000000e+00 1.270000e+01
         vertex 1.066911e+02 0.000000e+00 9.390239e+00
         vertex 1.071802e+02 0.000000e+00 8.901063e+00
      endloop
   endfacet
   facet normal -8.715566e-02 0.000000e+00 -9.961947e-01
      outer loop
         vertex 1.041400e+02 0.000000e+00 1.031875e+01
         vertex 1.041400e+02 6.350000e+00 1.031875e+01
         vertex 1.048292e+02 0.000000e+00 1.025846e+01
      endloop
   endfacet
   facet normal -8.715566e-02 0.000000e+00 -9.961947e-01
      outer loop
         vertex 1.048292e+02 0.000000e+00 1.025846e+01
         vertex 1.041400e+02 6.350000e+00 1.031875e+01
         vertex 1.048292e+02 6.350000e+00 1.025846e+01
      endloop
   endfacet
   facet normal -2.588199e-01 0.000000e+00 -9.659256e-01
      outer loop
         vertex 1.048292e+02 0.000000e+00 1.025846e+01
         vertex 1.048292e+02 6.350000e+00 1.025846e+01
         vertex 1.054974e+02 0.000000e+00 1.007941e+01
      endloop
   endfacet
   facet normal -2.588199e-01 0.000000e+00 -9.659256e-01
      outer loop
         vertex 1.054974e+02 0.000000e+00 1.007941e+01
         vertex 1.048292e+02 6.350000e+00 1.025846e+01
         vertex 1.054974e+02 6.350000e+00 1.007941e+01
      endloop
   endfacet
   facet normal -4.226170e-01 0.000000e+00 -9.063084e-01
      outer loop
         vertex 1.054974e+02 0.000000e+00 1.007941e+01
         vertex 1.054974e+02 6.350000e+00 1.007941e+01
         vertex 1.061244e+02 0.000000e+00 9.787038e+00
      endloop
   endfacet
   facet normal -4.226170e-01 0.000000e+00 -9.063084e-01
      outer loop
         vertex 1.061244e+02 0.000000e+00 9.787038e+00
         vertex 1.054974e+02 6.350000e+00 1.007941e+01
         vertex 1.061244e+02 6.350000e+00 9.787038e+00
      endloop
   endfacet
   facet normal -5.735769e-01 0.000000e+00 -8.191517e-01
      outer loop
         vertex 1.061244e+02 0.000000e+00 9.787038e+00
         vertex 1.061244e+02 6.350000e+00 9.787038e+00
         vertex 1.066911e+02 0.000000e+00 9.390239e+00
      endloop
   endfacet
   facet normal -5.735769e-01 0.000000e+00 -8.191517e-01
      outer loop
         vertex 1.066911e+02 0.000000e+00 9.390239e+00
         vertex 1.061244e+02 6.350000e+00 9.787038e+00
         vertex 1.066911e+02 6.350000e+00 9.390239e+00
      endloop
   endfacet
   facet normal -7.071069e-01 0.000000e+00 -7.071066e-01
      outer loop
         vertex 1.066911e+02 0.000000e+00 9.390239e+00
         vertex 1.066911e+02 6.350000e+00 9.390239e+00
         vertex 1.071802e+02 0.000000e+00 8.901063e+00
      endloop
   endfacet
   facet normal -7.071069e-01 0.000000e+00 -7.071066e-01
      outer loop
         vertex 1.071802e+02 0.000000e+00 8.901063e+00
         vertex 1.066911e+02 6.350000e+00 9.390239e+00
         vertex 1.071802e+02 6.350000e+00 8.901063e+00
      endloop
   endfacet
   facet normal -8.191522e-01 0.000000e+00 -5.735763e-01
      outer loop
         vertex 1.071802e+02 0.000000e+00 8.901063e+00
         vertex 1.071802e+02 6.350000e+00 8.901063e+00
         vertex 1.075770e+02 0.000000e+00 8.334375e+00
      endloop
   endfacet
   facet normal -8.191522e-01 0.000000e+00 -5.735763e-01
      outer loop
         vertex 1.075770e+02 0.000000e+00 8.334375e+00
         vertex 1.071802e+02 6.350000e+00 8.901063e+00
         vertex 1.075770e+02 6.350000e+00 8.334375e+00
      endloop
   endfacet
   facet normal -9.063070e-01 0.000000e+00 -4.226199e-01
      outer loop
         vertex 1.075770e+02 0.000000e+00 8.334375e+00
         vertex 1.075770e+02 6.350000e+00 8.334375e+00
         vertex 1.078694e+02 0.000000e+00 7.707392e+00
      endloop
   endfacet
   facet normal -9.063070e-01 0.000000e+00 -4.226199e-01
      outer loop
         vertex 1.078694e+02 0.000000e+00 7.707392e+00
         vertex 1.075770e+02 6.350000e+00 8.334375e+00
         vertex 1.078694e+02 6.350000e+00 7.707392e+00
      endloop
   endfacet
   facet normal -9.659266e-01 0.000000e+00 -2.588163e-01
      outer loop
         vertex 1.078694e+02 0.000000e+00 7.707392e+00
         vertex 1.078694e+02 6.350000e+00 7.707392e+00
         vertex 1.080485e+02 0.000000e+00 7.039166e+00
      endloop
   endfacet
   facet normal -9.659266e-01 0.000000e+00 -2.588163e-01
      outer loop
         vertex 1.080485e+02 0.000000e+00 7.039166e+00
         vertex 1.078694e+02 6.350000e+00 7.707392e+00
         vertex 1.080485e+02 6.350000e+00 7.039166e+00
      endloop
   endfacet
   facet normal -9.961947e-01 0.000000e+00 -8.715516e-02
      outer loop
         vertex 1.080485e+02 0.000000e+00 7.039166e+00
         vertex 1.080485e+02 6.350000e+00 7.039166e+00
         vertex 1.081087e+02 0.000000e+00 6.350000e+00
      endloop
   endfacet
   facet normal -9.961947e-01 0.000000e+00 -8.715516e-02
      outer loop
         vertex 1.081087e+02 0.000000e+00 6.350000e+00
         vertex 1.080485e+02 6.350000e+00 7.039166e+00
         vertex 1.081087e+02 6.350000e+00 6.350000e+00
      endloop
   endfacet
   facet normal -9.961947e-01 0.000000e+00 8.715516e-02
      outer loop
         vertex 1.081087e+02 0.000000e+00 6.350000e+00
         vertex 1.081087e+02 6.350000e+00 6.350000e+00
         vertex 1.080485e+02 0.000000e+00 5.660834e+00
      endloop
   endfacet
   facet normal -9.961947e-01 0.000000e+00 8.715516e-02
      outer loop
         vertex 1.080485e+02 0.000000e+00 5.660834e+00
         vertex 1.081087e+02 6.350000e+00 6.350000e+00
         vertex 1.080485e+02 6.350000e+00 5.660834e+00
      endloop
   endfacet
   facet normal -9.659266e-01 0.000000e+00 2.588163e-01
      outer loop
         vertex 1.080485e+02 0.000000e+00 5.660834e+00
         vertex 1.080485e+02 6.350000e+00 5.660834e+00
         vertex 1.078694e+02 0.000000e+00 4.992608e+00
      endloop
   endfacet
   facet normal -9.659266e-01 0.000000e+00 2.588163e-01
      outer loop
         vertex 1.078694e+02 0.000000e+00 4.992608e+00
         vertex 1.080485e+02 6.350000e+00 5.660834e+00
         vertex 1.078694e+02 6.350000e+00 4.992608e+00
      endloop
   endfacet
   facet normal -9.063070e-01 0.000000e+00 4.226199e-01
      outer loop
         vertex 1.078694e+02 0.000000e+00 4.992608e+00
         vertex 1.078694e+02 6.350000e+00 4.992608e+00
         vertex 1.075770e+02 0.000000e+00 4.365625e+00
      endloop
   endfacet
   facet normal -9.063070e-01 0.000000e+00 4.226199e-01
      outer loop
         vertex 1.075770e+02 0.000000e+00 4.365625e+00
         vertex 1.078694e+02 6.350000e+00 4.992608e+00
         vertex 1.075770e+02 6.350000e+00 4.365625e+00
      endloop
   endfacet
   facet normal -8.191522e-01 0.000000e+00 5.735763e-01
      outer loop
         vertex 1.075770e+02 0.000000e+00 4.365625e+00
         vertex 1.075770e+02 6.350000e+00 4.365625e+00
         vertex 1.071802e+02 0.000000e+00 3.798936e+00
      endloop
   endfacet
   facet normal -8.191522e-01 0.000000e+00 5.735763e-01
      outer loop
         vertex 1.071802e+02 0.000000e+00 3.798936e+00
         vertex 1.075770e+02 6.350000e+00 4.365625e+00
         vertex 1.071802e+02 6.350000e+00 3.798936e+00
      endloop
   endfacet
   facet normal -7.071069e-01 0.000000e+00 7.071066e-01
      outer loop
         vertex 1.071802e+02 0.000000e+00 3.798936e+00
         vertex 1.071802e+02 6.350000e+00 3.798936e+00
         vertex 1.066911e+02 0.000000e+00 3.309761e+00
      endloop
   endfacet
   facet normal -7.071069e-01 0.000000e+00 7.071066e-01
      outer loop
         vertex 1.066911e+02 0.000000e+00 3.309761e+00
         vertex 1.071802e+02 6.350000e+00 3.798936e+00
         vertex 1.066911e+02 6.350000e+00 3.309761e+00
      endloop
   endfacet
   facet normal -5.735769e-01 0.000000e+00 8.191517e-01
      outer loop
         vertex 1.066911e+02 0.000000e+00 3.309761e+00
         vertex 1.066911e+02 6.350000e+00 3.309761e+00
         vertex 1.061244e+02 0.000000e+00 2.912962e+00
      endloop
   endfacet
   facet normal -5.735769e-01 0.000000e+00 8.191517e-01
      outer loop
         vertex 1.061244e+02 0.000000e+00 2.912962e+00
         vertex 1.066911e+02 6.350000e+00 3.309761e+00
         vertex 1.061244e+02 6.350000e+00 2.912962e+00
      endloop
   endfacet
   facet normal -4.226170e-01 0.000000e+00 9.063084e-01
      outer loop
         vertex 1.061244e+02 0.000000e+00 2.912962e+00
         vertex 1.061244e+02 6.350000e+00 2.912962e+00
         vertex 1.054974e+02 0.000000e+00 2.620595e+00
      endloop
   endfacet
   facet normal -4.226170e-01 0.000000e+00 9.063084e-01
      outer loop
         vertex 1.054974e+02 0.000000e+00 2.620595e+00
         vertex 1.061244e+02 6.350000e+00 2.912962e+00
         vertex 1.054974e+02 6.350000e+00 2.620595e+00
      endloop
   endfacet
   facet normal -2.588199e-01 0.000000e+00 9.659256e-01
      outer loop
         vertex 1.054974e+02 0.000000e+00 2.620595e+00
         vertex 1.054974e+02 6.350000e+00 2.620595e+00
         vertex 1.048292e+02 0.000000e+00 2.441544e+00
      endloop
   endfacet
   facet normal -2.588199e-01 0.000000e+00 9.659256e-01
      outer loop
         vertex 1.048292e+02 0.000000e+00 2.441544e+00
         vertex 1.054974e+02 6.350000e+00 2.620595e+00
         vertex 1.048292e+02 6.350000e+00 2.441544e+00
      endloop
   endfacet
   facet normal -8.715566e-02 0.000000e+00 9.961947e-01
      outer loop
         vertex 1.048292e+02 0.000000e+00 2.441544e+00
         vertex 1.048292e+02 6.350000e+00 2.441544e+00
         vertex 1.041400e+02 0.000000e+00 2.381250e+00
      endloop
   endfacet
   facet normal -8.715566e-02 0.000000e+00 9.961947e-01
      outer loop
         vertex 1.041400e+02 0.000000e+00 2.381250e+00
         vertex 1.048292e+02 6.350000e+00 2.441544e+00
         vertex 1.041400e+02 6.350000e+00 2.381250e+00
      endloop
   endfacet
   facet normal 8.715566e-02 -0.000000e+00 9.961947e-01
      outer loop
         vertex 1.041400e+02 0.000000e+00 2.381250e+00
         vertex 1.041400e+02 6.350000e+00 2.381250e+00
         vertex 1.034508e+02 0.000000e+00 2.441544e+00
      endloop
   endfacet
   facet normal 8.715566e-02 -0.000000e+00 9.961947e-01
      outer loop
         vertex 1.034508e+02 0.000000e+00 2.441544e+00
         vertex 1.041400e+02 6.350000e+00 2.381250e+00
         vertex 1.034508e+02 6.350000e+00 2.441544e+00
      endloop
   endfacet
   facet normal 2.588199e-01 -0.000000e+00 9.659256e-01
      outer loop
         vertex 1.034508e+02 0.000000e+00 2.441544e+00
         vertex 1.034508e+02 6.350000e+00 2.441544e+00
         vertex 1.027826e+02 0.000000e+00 2.620595e+00
      endloop
   endfacet
   facet normal 2.588199e-01 -0.000000e+00 9.659256e-01
      outer loop
         vertex 1.027826e+02 0.000000e+00 2.620595e+00
         vertex 1.034508e+02 6.350000e+00 2.441544e+00
         vertex 1.027826e+02 6.350000e+00 2.620595e+00
      endloop
   endfacet
   facet normal 4.226170e-01 -0.000000e+00 9.063084e-01
      outer loop
         vertex 1.027826e+02 0.000000e+00 2.620595e+00
         vertex 1.027826e+02 6.350000e+00 2.620595e+00
         vertex 1.021556e+02 0.000000e+00 2.912962e+00
      endloop
   endfacet
   facet normal 4.226170e-01 -0.000000e+00 9.063084e-01
      outer loop
         vertex 1.021556e+02 0.000000e+00 2.912962e+00
         vertex 1.027826e+02 6.350000e+00 2.620595e+00
         vertex 1.021556e+02 6.350000e+00 2.912962e+00
      endloop
   endfacet
   facet normal 5.735769e-01 -0.000000e+00 8.191517e-01
      outer loop
         vertex 1.021556e+02 0.000000e+00 2.912962e+00
         vertex 1.021556e+02 6.350000e+00 2.912962e+00
         vertex 1.015889e+02 0.000000e+00 3.309761e+00
      endloop
   endfacet
   facet normal 5.735769e-01 -0.000000e+00 8.191517e-01
      outer loop
         vertex 1.015889e+02 0.000000e+00 3.309761e+00
         vertex 1.021556e+02 6.350000e+00 2.912962e+00
         vertex 1.015889e+02 6.350000e+00 3.309761e+00
      endloop
   endfacet
   facet normal 7.071069e-01 -0.000000e+00 7.071066e-01
      outer loop
         vertex 1.015889e+02 0.000000e+00 3.309761e+00
         vertex 1.015889e+02 6.350000e+00 3.309761e+00
         vertex 1.010998e+02 0.000000e+00 3.798936e+00
      endloop
   endfacet
   facet normal 7.071069e-01 -0.000000e+00 7.071066e-01
      outer loop
         vertex 1.010998e+02 0.000000e+00 3.798936e+00
         vertex 1.015889e+02 6.350000e+00 3.309761e+00
         vertex 1.010998e+02 6.350000e+00 3.798936e+00
      endloop
   endfacet
   facet normal 8.191522e-01 -0.000000e+00 5.735763e-01
      outer loop
         vertex 1.010998e+02 0.000000e+00 3.798936e+00
         vertex 1.010998e+02 6.350000e+00 3.798936e+00
         vertex 1.007030e+02 0.000000e+00 4.365625e+00
      endloop
   endfacet
   facet normal 8.191522e-01 -0.000000e+00 5.735763e-01
      outer loop
         vertex 1.007030e+02 0.000000e+00 4.365625e+00
         vertex 1.010998e+02 6.350000e+00 3.798936e+00
         vertex 1.007030e+02 6.350000e+00 4.365625e+00
      endloop
   endfacet
   facet normal 9.063091e-01 -0.000000e+00 4.226155e-01
      outer loop
         vertex 1.007030e+02 0.000000e+00 4.365625e+00
         vertex 1.007030e+02 6.350000e+00 4.365625e+00
         vertex 1.004106e+02 0.000000e+00 4.992608e+00
      endloop
   endfacet
   facet normal 9.063091e-01 -0.000000e+00 4.226155e-01
      outer loop
         vertex 1.004106e+02 0.000000e+00 4.992608e+00
         vertex 1.007030e+02 6.350000e+00 4.365625e+00
         vertex 1.004106e+02 6.350000e+00 4.992608e+00
      endloop
   endfacet
   facet normal 9.659252e-01 -0.000000e+00 2.588213e-01
      outer loop
         vertex 1.004106e+02 0.000000e+00 4.992608e+00
         vertex 1.004106e+02 6.350000e+00 4.992608e+00
         vertex 1.002315e+02 0.000000e+00 5.660834e+00
      endloop
   endfacet
   facet normal 9.659252e-01 -0.000000e+00 2.588213e-01
      outer loop
         vertex 1.002315e+02 0.000000e+00 5.660834e+00
         vertex 1.004106e+02 6.350000e+00 4.992608e+00
         vertex 1.002315e+02 6.350000e+00 5.660834e+00
      endloop
   endfacet
   facet normal 9.961947e-01 -0.000000e+00 8.715516e-02
      outer loop
         vertex 1.002315e+02 0.000000e+00 5.660834e+00
         vertex 1.002315e+02 6.350000e+00 5.660834e+00
         vertex 1.001712e+02 0.000000e+00 6.350000e+00
      endloop
   endfacet
   facet normal 9.961947e-01 -0.000000e+00 8.715516e-02
      outer loop
         vertex 1.001712e+02 0.000000e+00 6.350000e+00
         vertex 1.002315e+02 6.350000e+00 5.660834e+00
         vertex 1.001712e+02 6.350000e+00 6.350000e+00
      endloop
   endfacet
   facet normal 9.961947e-01 0.000000e+00 -8.715516e-02
      outer loop
         vertex 1.001712e+02 0.000000e+00 6.350000e+00
         vertex 1.001712e+02 6.350000e+00 6.350000e+00
         vertex 1.002315e+02 0.000000e+00 7.039166e+00
      endloop
   endfacet
   facet normal 9.961947e-01 0.000000e+00 -8.715516e-02
      outer loop
         vertex 1.002315e+02 0.000000e+00 7.039166e+00
         vertex 1.001712e+02 6.350000e+00 6.350000e+00
         vertex 1.002315e+02 6.350000e+00 7.039166e+00
      endloop
   endfacet
   facet normal 9.659252e-01 0.000000e+00 -2.588213e-01
      outer loop
         vertex 1.002315e+02 0.000000e+00 7.039166e+00
         vertex 1.002315e+02 6.350000e+00 7.039166e+00
         vertex 1.004106e+02 0.000000e+00 7.707392e+00
      endloop
   endfacet
   facet normal 9.659252e-01 0.000000e+00 -2.588213e-01
      outer loop
         vertex 1.004106e+02 0.000000e+00 7.707392e+00
         vertex 1.002315e+02 6.350000e+00 7.039166e+00
         vertex 1.004106e+02 6.350000e+00 7.707392e+00
      endloop
   endfacet
   facet normal 9.063091e-01 0.000000e+00 -4.226155e-01
      outer loop
         vertex 1.004106e+02 0.000000e+00 7.707392e+00
         vertex 1.004106e+02 6.350000e+00 7.707392e+00
         vertex 1.007030e+02 0.000000e+00 8.334375e+00
      endloop
   endfacet
   facet normal 9.063091e-01 0.000000e+00 -4.226155e-01
      outer loop
         vertex 1.007030e+02 0.000000e+00 8.334375e+00
         vertex 1.004106e+02 6.350000e+00 7.707392e+00
         vertex 1.007030e+02 6.350000e+00 8.334375e+00
      endloop
   endfacet
   facet normal 8.191522e-01 0.000000e+00 -5.735763e-01
      outer loop
         vertex 1.007030e+02 0.000000e+00 8.334375e+00
         vertex 1.007030e+02 6.350000e+00 8.334375e+00
         vertex 1.010998e+02 0.000000e+00 8.901063e+00
      endloop
   endfacet
   facet normal 8.191522e-01 0.000000e+00 -5.735763e-01
      outer loop
         vertex 1.010998e+02 0.000000e+00 8.901063e+00
         vertex 1.007030e+02 6.350000e+00 8.334375e+00
         vertex 1.010998e+02 6.350000e+00 8.901063e+00
      endloop
   endfacet
   facet normal 7.071069e-01 0.000000e+00 -7.071066e-01
      outer loop
         vertex 1.010998e+02 0.000000e+00 8.901063e+00
         vertex 1.010998e+02 6.350000e+00 8.901063e+00
         vertex 1.015889e+02 0.000000e+00 9.390239e+00
      endloop
   endfacet
   facet normal 7.071069e-01 0.000000e+00 -7.071066e-01
      outer loop
         vertex 1.015889e+02 0.000000e+00 9.390239e+00
         vertex 1.010998e+02 6.350000e+00 8.901063e+00
         vertex 1.015889e+02 6.350000e+00 9.390239e+00
      endloop
   endfacet
   facet normal 5.735769e-01 0.000000e+00 -8.191517e-01
      outer loop
         vertex 1.015889e+02 0.000000e+00 9.390239e+00
         vertex 1.015889e+02 6.350000e+00 9.390239e+00
         vertex 1.021556e+02 0.000000e+00 9.787038e+00
      endloop
   endfacet
   facet normal 5.735769e-01 0.000000e+00 -8.191517e-01
      outer loop
         vertex 1.021556e+02 0.000000e+00 9.787038e+00
         vertex 1.015889e+02 6.350000e+00 9.390239e+00
         vertex 1.021556e+02 6.350000e+00 9.787038e+00
      endloop
   endfacet
   facet normal 4.226170e-01 0.000000e+00 -9.063084e-01
      outer loop
         vertex 1.021556e+02 0.000000e+00 9.787038e+00
         vertex 1.021556e+02 6.350000e+00 9.787038e+00
         vertex 1.027826e+02 0.000000e+00 1.007941e+01
      endloop
   endfacet
   facet normal 4.226170e-01 0.000000e+00 -9.063084e-01
      outer loop
         vertex 1.027826e+02 0.000000e+00 1.007941e+01
         vertex 1.021556e+02 6.350000e+00 9.787038e+00
         vertex 1.027826e+02 6.350000e+00 1.007941e+01
      endloop
   endfacet
   facet normal 2.588199e-01 0.000000e+00 -9.659256e-01
      outer loop
         vertex 1.027826e+02 0.000000e+00 1.007941e+01
         vertex 1.027826e+02 6.350000e+00 1.007941e+01
         vertex 1.034508e+02 0.000000e+00 1.025846e+01
      endloop
   endfacet
   facet normal 2.588199e-01 0.000000e+00 -9.659256e-01
      outer loop
         vertex 1.034508e+02 0.000000e+00 1.025846e+01
         vertex 1.027826e+02 6.350000e+00 1.007941e+01
         vertex 1.034508e+02 6.350000e+00 1.025846e+01
      endloop
   endfacet
   facet normal 8.715566e-02 0.000000e+00 -9.961947e-01
      outer loop
         vertex 1.034508e+02 0.000000e+00 1.025846e+01
         vertex 1.034508e+02 6.350000e+00 1.025846e+01
         vertex 1.041400e+02 0.000000e+00 1.031875e+01
      endloop
   endfacet
   facet normal 8.715566e-02 0.000000e+00 -9.961947e-01
      outer loop
         vertex 1.041400e+02 0.000000e+00 1.031875e+01
         vertex 1.034508e+02 6.350000e+00 1.025846e+01
         vertex 1.041400e+02 6.350000e+00 1.031875e+01
      endloop
   endfacet
   facet normal -8.715566e-02 0.000000e+00 -9.961947e-01
      outer loop
         vertex 1.016000e+01 0.000000e+00 1.031875e+01
         vertex 1.016000e+01 6.350000e+00 1.031875e+01
         vertex 1.084917e+01 0.000000e+00 1.025846e+01
      endloop
   endfacet
   facet normal -8.715566e-02 0.000000e+00 -9.961947e-01
      outer loop
         vertex 1.084917e+01 0.000000e+00 1.025846e+01
         vertex 1.016000e+01 6.350000e+00 1.031875e+01
         vertex 1.084917e+01 6.350000e+00 1.025846e+01
      endloop
   endfacet
   facet normal -2.588199e-01 0.000000e+00 -9.659256e-01
      outer loop
         vertex 1.084917e+01 0.000000e+00 1.025846e+01
         vertex 1.084917e+01 6.350000e+00 1.025846e+01
         vertex 1.151739e+01 0.000000e+00 1.007941e+01
      endloop
   endfacet
   facet normal -2.588199e-01 0.000000e+00 -9.659256e-01
      outer loop
         vertex 1.151739e+01 0.000000e+00 1.007941e+01
         vertex 1.084917e+01 6.350000e+00 1.025846e+01
         vertex 1.151739e+01 6.350000e+00 1.007941e+01
      endloop
   endfacet
   facet normal -4.226170e-01 0.000000e+00 -9.063084e-01
      outer loop
         vertex 1.151739e+01 0.000000e+00 1.007941e+01
         vertex 1.151739e+01 6.350000e+00 1.007941e+01
         vertex 1.214438e+01 0.000000e+00 9.787038e+00
      endloop
   endfacet
   facet normal -4.226170e-01 0.000000e+00 -9.063084e-01
      outer loop
         vertex 1.214438e+01 0.000000e+00 9.787038e+00
         vertex 1.151739e+01 6.350000e+00 1.007941e+01
         vertex 1.214438e+01 6.350000e+00 9.787038e+00
      endloop
   endfacet
   facet normal -5.735769e-01 0.000000e+00 -8.191517e-01
      outer loop
         vertex 1.214438e+01 0.000000e+00 9.787038e+00
         vertex 1.214438e+01 6.350000e+00 9.787038e+00
         vertex 1.271106e+01 0.000000e+00 9.390239e+00
      endloop
   endfacet
   facet normal -5.735769e-01 0.000000e+00 -8.191517e-01
      outer loop
         vertex 1.271106e+01 0.000000e+00 9.390239e+00
         vertex 1.214438e+01 6.350000e+00 9.787038e+00
         vertex 1.271106e+01 6.350000e+00 9.390239e+00
      endloop
   endfacet
   facet normal -7.071069e-01 0.000000e+00 -7.071066e-01
      outer loop
         vertex 1.271106e+01 0.000000e+00 9.390239e+00
         vertex 1.271106e+01 6.350000e+00 9.390239e+00
         vertex 1.320024e+01 0.000000e+00 8.901063e+00
      endloop
   endfacet
   facet normal -7.071069e-01 0.000000e+00 -7.071066e-01
      outer loop
         vertex 1.320024e+01 0.000000e+00 8.901063e+00
         vertex 1.271106e+01 6.350000e+00 9.390239e+00
         vertex 1.320024e+01 6.350000e+00 8.901063e+00
      endloop
   endfacet
   facet normal -8.191522e-01 0.000000e+00 -5.735763e-01
      outer loop
         vertex 1.320024e+01 0.000000e+00 8.901063e+00
         vertex 1.320024e+01 6.350000e+00 8.901063e+00
         vertex 1.359704e+01 0.000000e+00 8.334375e+00
      endloop
   endfacet
   facet normal -8.191522e-01 0.000000e+00 -5.735763e-01
      outer loop
         vertex 1.359704e+01 0.000000e+00 8.334375e+00
         vertex 1.320024e+01 6.350000e+00 8.901063e+00
         vertex 1.359704e+01 6.350000e+00 8.334375e+00
      endloop
   endfacet
   facet normal -9.063091e-01 0.000000e+00 -4.226155e-01
      outer loop
         vertex 1.359704e+01 0.000000e+00 8.334375e+00
         vertex 1.359704e+01 6.350000e+00 8.334375e+00
         vertex 1.388940e+01 0.000000e+00 7.707392e+00
      endloop
   endfacet
   facet normal -9.063091e-01 0.000000e+00 -4.226155e-01
      outer loop
         vertex 1.388940e+01 0.000000e+00 7.707392e+00
         vertex 1.359704e+01 6.350000e+00 8.334375e+00
         vertex 1.388940e+01 6.350000e+00 7.707392e+00
      endloop
   endfacet
   facet normal -9.659252e-01 0.000000e+00 -2.588213e-01
      outer loop
         vertex 1.388940e+01 0.000000e+00 7.707392e+00
         vertex 1.388940e+01 6.350000e+00 7.707392e+00
         vertex 1.406845e+01 0.000000e+00 7.039166e+00
      endloop
   endfacet
   facet normal -9.659252e-01 0.000000e+00 -2.588213e-01
      outer loop
         vertex 1.406845e+01 0.000000e+00 7.039166e+00
         vertex 1.388940e+01 6.350000e+00 7.707392e+00
         vertex 1.406845e+01 6.350000e+00 7.039166e+00
      endloop
   endfacet
   facet normal -9.961947e-01 0.000000e+00 -8.715516e-02
      outer loop
         vertex 1.406845e+01 0.000000e+00 7.039166e+00
         vertex 1.406845e+01 6.350000e+00 7.039166e+00
         vertex 1.412875e+01 0.000000e+00 6.350000e+00
      endloop
   endfacet
   facet normal -9.961947e-01 0.000000e+00 -8.715516e-02
      outer loop
         vertex 1.412875e+01 0.000000e+00 6.350000e+00
         vertex 1.406845e+01 6.350000e+00 7.039166e+00
         vertex 1.412875e+01 6.350000e+00 6.350000e+00
      endloop
   endfacet
   facet normal -9.961947e-01 0.000000e+00 8.715516e-02
      outer loop
         vertex 1.412875e+01 0.000000e+00 6.350000e+00
         vertex 1.412875e+01 6.350000e+00 6.350000e+00
         vertex 1.406845e+01 0.000000e+00 5.660834e+00
      endloop
   endfacet
   facet normal -9.961947e-01 0.000000e+00 8.715516e-02
      outer loop
         vertex 1.406845e+01 0.000000e+00 5.660834e+00
         vertex 1.412875e+01 6.350000e+00 6.350000e+00
         vertex 1.406845e+01 6.350000e+00 5.660834e+00
      endloop
   endfacet
   facet normal -9.659252e-01 0.000000e+00 2.588213e-01
      outer loop
         vertex 1.406845e+01 0.000000e+00 5.660834e+00
         vertex 1.406845e+01 6.350000e+00 5.660834e+00
         vertex 1.388940e+01 0.000000e+00 4.992608e+00
      endloop
   endfacet
   facet normal -9.659252e-01 0.000000e+00 2.588213e-01
      outer loop
         vertex 1.388940e+01 0.000000e+00 4.992608e+00
         vertex 1.406845e+01 6.350000e+00 5.660834e+00
         vertex 1.388940e+01 6.350000e+00 4.992608e+00
      endloop
   endfacet
   facet normal -9.063091e-01 0.000000e+00 4.226155e-01
      outer loop
         vertex 1.388940e+01 0.000000e+00 4.992608e+00
         vertex 1.388940e+01 6.350000e+00 4.992608e+00
         vertex 1.359704e+01 0.000000e+00 4.365625e+00
      endloop
   endfacet
   facet normal -9.063091e-01 0.000000e+00 4.226155e-01
      outer loop
         vertex 1.359704e+01 0.000000e+00 4.365625e+00
         vertex 1.388940e+01 6.350000e+00 4.992608e+00
         vertex 1.359704e+01 6.350000e+00 4.365625e+00
      endloop
   endfacet
   facet normal -8.191522e-01 0.000000e+00 5.735763e-01
      outer loop
         vertex 1.359704e+01 0.000000e+00 4.365625e+00
         vertex 1.359704e+01 6.350000e+00 4.365625e+00
         vertex 1.320024e+01 0.000000e+00 3.798936e+00
      endloop
   endfacet
   facet normal -8.191522e-01 0.000000e+00 5.735763e-01
      outer loop
         vertex 1.320024e+01 0.000000e+00 3.798936e+00
         vertex 1.359704e+01 6.350000e+00 4.365625e+00
         vertex 1.320024e+01 6.350000e+00 3.798936e+00
      endloop
   endfacet
   facet normal -7.071069e-01 0.000000e+00 7.071066e-01
      outer loop
         vertex 1.320024e+01 0.000000e+00 3.798936e+00
         vertex 1.320024e+01 6.350000e+00 3.798936e+00
         vertex 1.271106e+01 0.000000e+00 3.309761e+00
      endloop
   endfacet
   facet normal -7.071069e-01 0.000000e+00 7.071066e-01
      outer loop
         vertex 1.271106e+01 0.000000e+00 3.309761e+00
         vertex 1.320024e+01 6.350000e+00 3.798936e+00
         vertex 1.271106e+01 6.350000e+00 3.309761e+00
      endloop
   endfacet
   facet normal -5.735769e-01 0.000000e+00 8.191517e-01
      outer loop
         vertex 1.271106e+01 0.000000e+00 3.309761e+00
         vertex 1.271106e+01 6.350000e+00 3.309761e+00
         vertex 1.214438e+01 0.000000e+00 2.912962e+00
      endloop
   endfacet
   facet normal -5.735769e-01 0.000000e+00 8.191517e-01
      outer loop
         vertex 1.214438e+01 0.000000e+00 2.912962e+00
         vertex 1.271106e+01 6.350000e+00 3.309761e+00
         vertex 1.214438e+01 6.350000e+00 2.912962e+00
      endloop
   endfacet
   facet normal -4.226170e-01 0.000000e+00 9.063084e-01
      outer loop
         vertex 1.214438e+01 0.000000e+00 2.912962e+00
         vertex 1.214438e+01 6.350000e+00 2.912962e+00
         vertex 1.151739e+01 0.000000e+00 2.620595e+00
      endloop
   endfacet
   facet normal -4.226170e-01 0.000000e+00 9.063084e-01
      outer loop
         vertex 1.151739e+01 0.000000e+00 2.620595e+00
         vertex 1.214438e+01 6.350000e+00 2.912962e+00
         vertex 1.151739e+01 6.350000e+00 2.620595e+00
      endloop
   endfacet
   facet normal -2.588199e-01 0.000000e+00 9.659256e-01
      outer loop
         vertex 1.151739e+01 0.000000e+00 2.620595e+00
         vertex 1.151739e+01 6.350000e+00 2.620595e+00
         vertex 1.084917e+01 0.000000e+00 2.441544e+00
      endloop
   endfacet
   facet normal -2.588199e-01 0.000000e+00 9.659256e-01
      outer loop
         vertex 1.084917e+01 0.000000e+00 2.441544e+00
         vertex 1.151739e+01 6.350000e+00 2.620595e+00
         vertex 1.084917e+01 6.350000e+00 2.441544e+00
      endloop
   endfacet
   facet normal -8.715566e-02 0.000000e+00 9.961947e-01
      outer loop
         vertex 1.084917e+01 0.000000e+00 2.441544e+00
         vertex 1.084917e+01 6.350000e+00 2.441544e+00
         vertex 1.016000e+01 0.000000e+00 2.381250e+00
      endloop
   endfacet
   facet normal -8.715566e-02 0.000000e+00 9.961947e-01
      outer loop
         vertex 1.016000e+01 0.000000e+00 2.381250e+00
         vertex 1.084917e+01 6.350000e+00 2.441544e+00
         vertex 1.016000e+01 6.350000e+00 2.381250e+00
      endloop
   endfacet
   facet normal 8.715566e-02 -0.000000e+00 9.961947e-01
      outer loop
         vertex 1.016000e+01 0.000000e+00 2.381250e+00
         vertex 1.016000e+01 6.350000e+00 2.381250e+00
         vertex 9.470832e+00 0.000000e+00 2.441544e+00
      endloop
   endfacet
   facet normal 8.715566e-02 -0.000000e+00 9.961947e-01
      outer loop
         vertex 9.470832e+00 0.000000e+00 2.441544e+00
         vertex 1.016000e+01 6.350000e+00 2.381250e+00
         vertex 9.470832e+00 6.350000e+00 2.441544e+00
      endloop
   endfacet
   facet normal 2.588199e-01 -0.000000e+00 9.659256e-01
      outer loop
         vertex 9.470832e+00 0.000000e+00 2.441544e+00
         vertex 9.470832e+00 6.350000e+00 2.441544e+00
         vertex 8.802608e+00 0.000000e+00 2.620595e+00
      endloop
   endfacet
   facet normal 2.588199e-01 -0.000000e+00 9.659256e-01
      outer loop
         vertex 8.802608e+00 0.000000e+00 2.620595e+00
         vertex 9.470832e+00 6.350000e+00 2.441544e+00
         vertex 8.802608e+00 6.350000e+00 2.620595e+00
      endloop
   endfacet
   facet normal 4.226170e-01 -0.000000e+00 9.063084e-01
      outer loop
         vertex 8.802608e+00 0.000000e+00 2.620595e+00
         vertex 8.802608e+00 6.350000e+00 2.620595e+00
         vertex 8.175623e+00 0.000000e+00 2.912962e+00
      endloop
   endfacet
   facet normal 4.226170e-01 -0.000000e+00 9.063084e-01
      outer loop
         vertex 8.175623e+00 0.000000e+00 2.912962e+00
         vertex 8.802608e+00 6.350000e+00 2.620595e+00
         vertex 8.175623e+00 6.350000e+00 2.912962e+00
      endloop
   endfacet
   facet normal 5.735769e-01 -0.000000e+00 8.191517e-01
      outer loop
         vertex 8.175623e+00 0.000000e+00 2.912962e+00
         vertex 8.175623e+00 6.350000e+00 2.912962e+00
         vertex 7.608935e+00 0.000000e+00 3.309761e+00
      endloop
   endfacet
   facet normal 5.735769e-01 -0.000000e+00 8.191517e-01
      outer loop
         vertex 7.608935e+00 0.000000e+00 3.309761e+00
         vertex 8.175623e+00 6.350000e+00 2.912962e+00
         vertex 7.608935e+00 6.350000e+00 3.309761e+00
      endloop
   endfacet
   facet normal 7.071069e-01 -0.000000e+00 7.071066e-01
      outer loop
         vertex 7.608935e+00 0.000000e+00 3.309761e+00
         vertex 7.608935e+00 6.350000e+00 3.309761e+00
         vertex 7.119760e+00 0.000000e+00 3.798936e+00
      endloop
   endfacet
   facet normal 7.071069e-01 -0.000000e+00 7.071066e-01
      outer loop
         vertex 7.119760e+00 0.000000e+00 3.798936e+00
         vertex 7.608935e+00 6.350000e+00 3.309761e+00
         vertex 7.119760e+00 6.350000e+00 3.798936e+00
      endloop
   endfacet
   facet normal 8.191522e-01 -0.000000e+00 5.735763e-01
      outer loop
         vertex 7.119760e+00 0.000000e+00 3.798936e+00
         vertex 7.119760e+00 6.350000e+00 3.798936e+00
         vertex 6.722961e+00 0.000000e+00 4.365625e+00
      endloop
   endfacet
   facet normal 8.191522e-01 -0.000000e+00 5.735763e-01
      outer loop
         vertex 6.722961e+00 0.000000e+00 4.365625e+00
         vertex 7.119760e+00 6.350000e+00 3.798936e+00
         vertex 6.722961e+00 6.350000e+00 4.365625e+00
      endloop
   endfacet
   facet normal 9.063070e-01 -0.000000e+00 4.226199e-01
      outer loop
         vertex 6.722961e+00 0.000000e+00 4.365625e+00
         vertex 6.722961e+00 6.350000e+00 4.365625e+00
         vertex 6.430592e+00 0.000000e+00 4.992608e+00
      endloop
   endfacet
   facet normal 9.063070e-01 -0.000000e+00 4.226199e-01
      outer loop
         vertex 6.430592e+00 0.000000e+00 4.992608e+00
         vertex 6.722961e+00 6.350000e+00 4.365625e+00
         vertex 6.430592e+00 6.350000e+00 4.992608e+00
      endloop
   endfacet
   facet normal 9.659266e-01 -0.000000e+00 2.588163e-01
      outer loop
         vertex 6.430592e+00 0.000000e+00 4.992608e+00
         vertex 6.430592e+00 6.350000e+00 4.992608e+00
         vertex 6.251544e+00 0.000000e+00 5.660834e+00
      endloop
   endfacet
   facet normal 9.659266e-01 -0.000000e+00 2.588163e-01
      outer loop
         vertex 6.251544e+00 0.000000e+00 5.660834e+00
         vertex 6.430592e+00 6.350000e+00 4.992608e+00
         vertex 6.251544e+00 6.350000e+00 5.660834e+00
      endloop
   endfacet
   facet normal 9.961947e-01 -0.000000e+00 8.715516e-02
      outer loop
         vertex 6.251544e+00 0.000000e+00 5.660834e+00
         vertex 6.251544e+00 6.350000e+00 5.660834e+00
         vertex 6.191250e+00 0.000000e+00 6.350000e+00
      endloop
   endfacet
   facet normal 9.961947e-01 -0.000000e+00 8.715516e-02
      outer loop
         vertex 6.191250e+00 0.000000e+00 6.350000e+00
         vertex 6.251544e+00 6.350000e+00 5.660834e+00
         vertex 6.191250e+00 6.350000e+00 6.350000e+00
      endloop
   endfacet
   facet normal 9.961947e-01 0.000000e+00 -8.715516e-02
      outer loop
         vertex 6.191250e+00 0.000000e+00 6.350000e+00
         vertex 6.191250e+00 6.350000e+00 6.350000e+00
         vertex 6.251544e+00 0.000000e+00 7.039166e+00
      endloop
   endfacet
   facet normal 9.961947e-01 0.000000e+00 -8.715516e-02
      outer loop
         vertex 6.251544e+00 0.000000e+00 7.039166e+00
         vertex 6.191250e+00 6.350000e+00 6.350000e+00
         vertex 6.251544e+00 6.350000e+00 7.039166e+00
      endloop
   endfacet
   facet normal 9.659266e-01 0.000000e+00 -2.588163e-01
      outer loop
         vertex 6.251544e+00 0.000000e+00 7.039166e+00
         vertex 6.251544e+00 6.350000e+00 7.039166e+00
         vertex 6.430592e+00 0.000000e+00 7.707392e+00
      endloop
   endfacet
   facet normal 9.659266e-01 0.000000e+00 -2.588163e-01
      outer loop
         vertex 6.430592e+00 0.000000e+00 7.707392e+00
         vertex 6.251544e+00 6.350000e+00 7.039166e+00
         vertex 6.430592e+00 6.350000e+00 7.707392e+00
      endloop
   endfacet
   facet normal 9.063070e-01 0.000000e+00 -4.226199e-01
      outer loop
         vertex 6.430592e+00 0.000000e+00 7.707392e+00
         vertex 6.430592e+00 6.350000e+00 7.707392e+00
         vertex 6.722961e+00 0.000000e+00 8.334375e+00
      endloop
   endfacet
   facet normal 9.063070e-01 0.000000e+00 -4.226199e-01
      outer loop
         vertex 6.722961e+00 0.000000e+00 8.334375e+00
         vertex 6.430592e+00 6.350000e+00 7.707392e+00
         vertex 6.722961e+00 6.350000e+00 8.334375e+00
      endloop
   endfacet
   facet normal 8.191522e-01 0.000000e+00 -5.735763e-01
      outer loop
         vertex 6.722961e+00 0.000000e+00 8.334375e+00
         vertex 6.722961e+00 6.350000e+00 8.334375e+00
         vertex 7.119760e+00 0.000000e+00 8.901063e+00
      endloop
   endfacet
   facet normal 8.191522e-01 0.000000e+00 -5.735763e-01
      outer loop
         vertex 7.119760e+00 0.000000e+00 8.901063e+00
         vertex 6.722961e+00 6.350000e+00 8.334375e+00
         vertex 7.119760e+00 6.350000e+00 8.901063e+00
      endloop
   endfacet
   facet normal 7.071069e-01 0.000000e+00 -7.071066e-01
      outer loop
         vertex 7.119760e+00 0.000000e+00 8.901063e+00
         vertex 7.119760e+00 6.350000e+00 8.901063e+00
         vertex 7.608935e+00 0.000000e+00 9.390239e+00
      endloop
   endfacet
   facet normal 7.071069e-01 0.000000e+00 -7.071066e-01
      outer loop
         vertex 7.608935e+00 0.000000e+00 9.390239e+00
         vertex 7.119760e+00 6.350000e+00 8.901063e+00
         vertex 7.608935e+00 6.350000e+00 9.390239e+00
      endloop
   endfacet
   facet normal 5.735769e-01 0.000000e+00 -8.191517e-01
      outer loop
         vertex 7.608935e+00 0.000000e+00 9.390239e+00
         vertex 7.608935e+00 6.350000e+00 9.390239e+00
         vertex 8.175623e+00 0.000000e+00 9.787038e+00
      endloop
   endfacet
   facet normal 5.735769e-01 0.000000e+00 -8.191517e-01
      outer loop
         vertex 8.175623e+00 0.000000e+00 9.787038e+00
         vertex 7.608935e+00 6.350000e+00 9.390239e+00
         vertex 8.175623e+00 6.350000e+00 9.787038e+00
      endloop
   endfacet
   facet normal 4.226170e-01 0.000000e+00 -9.063084e-01
      outer loop
         vertex 8.175623e+00 0.000000e+00 9.787038e+00
         vertex 8.175623e+00 6.350000e+00 9.787038e+00
         vertex 8.802608e+00 0.000000e+00 1.007941e+01
      endloop
   endfacet
   facet normal 4.226170e-01 0.000000e+00 -9.063084e-01
      outer loop
         vertex 8.802608e+00 0.000000e+00 1.007941e+01
         vertex 8.175623e+00 6.350000e+00 9.787038e+00
         vertex 8.802608e+00 6.350000e+00 1.007941e+01
      endloop
   endfacet
   facet normal 2.588199e-01 0.000000e+00 -9.659256e-01
      outer loop
         vertex 8.802608e+00 0.000000e+00 1.007941e+01
         vertex 8.802608e+00 6.350000e+00 1.007941e+01
         vertex 9.470832e+00 0.000000e+00 1.025846e+01
      endloop
   endfacet
   facet normal 2.588199e-01 0.000000e+00 -9.659256e-01
      outer loop
         vertex 9.470832e+00 0.000000e+00 1.025846e+01
         vertex 8.802608e+00 6.350000e+00 1.007941e+01
         vertex 9.470832e+00 6.350000e+00 1.025846e+01
      endloop
   endfacet
   facet normal 8.715566e-02 0.000000e+00 -9.961947e-01
      outer loop
         vertex 9.470832e+00 0.000000e+00 1.025846e+01
         vertex 9.470832e+00 6.350000e+00 1.025846e+01
         vertex 1.016000e+01 0.000000e+00 1.031875e+01
      endloop
   endfacet
   facet normal 8.715566e-02 0.000000e+00 -9.961947e-01
      outer loop
         vertex 1.016000e+01 0.000000e+00 1.031875e+01
         vertex 9.470832e+00 6.350000e+00 1.025846e+01
         vertex 1.016000e+01 6.350000e+00 1.031875e+01
      endloop
   endfacet
endsolid Aluminum component